<?xml version="1.0" encoding="utf-8" standalone="no"?>
<!DOCTYPE svg PUBLIC "-//W3C//DTD SVG 1.1//EN"
  "http://www.w3.org/Graphics/SVG/1.1/DTD/svg11.dtd">
<svg xmlns:xlink="http://www.w3.org/1999/xlink" width="1152pt" height="489.6pt" viewBox="0 0 1152 489.6" xmlns="http://www.w3.org/2000/svg" version="1.1">
 <metadata>
  <rdf:RDF xmlns:dc="http://purl.org/dc/elements/1.1/" xmlns:cc="http://creativecommons.org/ns#" xmlns:rdf="http://www.w3.org/1999/02/22-rdf-syntax-ns#">
   <cc:Work>
    <dc:type rdf:resource="http://purl.org/dc/dcmitype/StillImage"/>
    <dc:date>2022-03-28T15:04:00.438352</dc:date>
    <dc:format>image/svg+xml</dc:format>
    <dc:creator>
     <cc:Agent>
      <dc:title>Matplotlib v3.5.0, https://matplotlib.org/</dc:title>
     </cc:Agent>
    </dc:creator>
   </cc:Work>
  </rdf:RDF>
 </metadata>
 <defs>
  <style type="text/css">*{stroke-linejoin: round; stroke-linecap: butt}</style>
 </defs>
 <g id="figure_1">
  <g id="patch_1">
   <path d="M 0 489.6 
L 1152 489.6 
L 1152 0 
L 0 0 
L 0 489.6 
z
" style="fill: none"/>
  </g>
  <g id="axes_1">
   <g id="patch_2">
    <path d="M 144 428.4 
L 1036.8 428.4 
L 1036.8 58.752 
L 144 58.752 
L 144 428.4 
z
" style="fill: none"/>
   </g>
   <g id="matplotlib.axis_1">
    <g id="xtick_1">
     <g id="line2d_1">
      <defs>
       <path id="ma771ceb427" d="M 0 0 
L 0 -12 
" style="stroke: #262626; stroke-width: 2.5"/>
      </defs>
      <g>
       <use xlink:href="#ma771ceb427" x="248.557714" y="428.4" style="fill: #262626; stroke: #262626; stroke-width: 2.5"/>
      </g>
     </g>
     <g id="text_1">
      <!-- $\mathdefault{10^{-1}}$ -->
      <g style="fill: #262626" transform="translate(228.783654 447.120693)scale(0.22 -0.22)">
       <defs>
        <path id="CMR17-31" d="M 1702 4058 
C 1702 4192 1696 4192 1606 4192 
C 1357 3916 979 3827 621 3827 
C 602 3827 570 3827 563 3808 
C 557 3795 557 3782 557 3648 
C 755 3648 1088 3686 1344 3839 
L 1344 461 
C 1344 236 1331 160 781 160 
L 589 160 
L 589 0 
C 896 0 1216 0 1523 0 
C 1830 0 2150 0 2458 0 
L 2458 160 
L 2266 160 
C 1715 160 1702 230 1702 458 
L 1702 4058 
z
" transform="scale(0.015625)"/>
        <path id="CMR17-30" d="M 2688 2025 
C 2688 2416 2682 3080 2413 3591 
C 2176 4039 1798 4198 1466 4198 
C 1158 4198 768 4058 525 3597 
C 269 3118 243 2524 243 2025 
C 243 1661 250 1106 448 619 
C 723 -39 1216 -128 1466 -128 
C 1760 -128 2208 -7 2470 600 
C 2662 1042 2688 1559 2688 2025 
z
M 1466 -26 
C 1056 -26 813 325 723 812 
C 653 1188 653 1738 653 2096 
C 653 2588 653 2997 736 3387 
C 858 3929 1216 4096 1466 4096 
C 1728 4096 2067 3923 2189 3400 
C 2272 3036 2278 2607 2278 2096 
C 2278 1680 2278 1169 2202 792 
C 2067 95 1690 -26 1466 -26 
z
" transform="scale(0.015625)"/>
        <path id="CMSY10-0" d="M 4218 1472 
C 4326 1472 4442 1472 4442 1600 
C 4442 1728 4326 1728 4218 1728 
L 755 1728 
C 646 1728 531 1728 531 1600 
C 531 1472 646 1472 755 1472 
L 4218 1472 
z
" transform="scale(0.015625)"/>
       </defs>
       <use xlink:href="#CMR17-31" transform="scale(0.996264)"/>
       <use xlink:href="#CMR17-30" transform="translate(45.690477 0)scale(0.996264)"/>
       <use xlink:href="#CMSY10-0" transform="translate(91.380954 36.153639)scale(0.697382)"/>
       <use xlink:href="#CMR17-31" transform="translate(145.621947 36.153639)scale(0.697382)"/>
      </g>
     </g>
    </g>
    <g id="xtick_2">
     <g id="line2d_2">
      <g>
       <use xlink:href="#ma771ceb427" x="511.305143" y="428.4" style="fill: #262626; stroke: #262626; stroke-width: 2.5"/>
      </g>
     </g>
     <g id="text_2">
      <!-- $\mathdefault{10^{0}}$ -->
      <g style="fill: #262626" transform="translate(497.497592 447.120693)scale(0.22 -0.22)">
       <use xlink:href="#CMR17-31" transform="scale(0.996264)"/>
       <use xlink:href="#CMR17-30" transform="translate(45.690477 0)scale(0.996264)"/>
       <use xlink:href="#CMR17-30" transform="translate(91.380954 36.153639)scale(0.697382)"/>
      </g>
     </g>
    </g>
    <g id="xtick_3">
     <g id="line2d_3">
      <g>
       <use xlink:href="#ma771ceb427" x="774.052571" y="428.4" style="fill: #262626; stroke: #262626; stroke-width: 2.5"/>
      </g>
     </g>
     <g id="text_3">
      <!-- $\mathdefault{10^{1}}$ -->
      <g style="fill: #262626" transform="translate(760.24502 447.120693)scale(0.22 -0.22)">
       <use xlink:href="#CMR17-31" transform="scale(0.996264)"/>
       <use xlink:href="#CMR17-30" transform="translate(45.690477 0)scale(0.996264)"/>
       <use xlink:href="#CMR17-31" transform="translate(91.380954 36.153639)scale(0.697382)"/>
      </g>
     </g>
    </g>
    <g id="xtick_4">
     <g id="line2d_4">
      <g>
       <use xlink:href="#ma771ceb427" x="1036.8" y="428.4" style="fill: #262626; stroke: #262626; stroke-width: 2.5"/>
      </g>
     </g>
     <g id="text_4">
      <!-- $\mathdefault{10^{2}}$ -->
      <g style="fill: #262626" transform="translate(1022.992449 447.120693)scale(0.22 -0.22)">
       <defs>
        <path id="CMR17-32" d="M 2669 989 
L 2554 989 
C 2490 536 2438 459 2413 420 
C 2381 369 1920 369 1830 369 
L 602 369 
C 832 619 1280 1072 1824 1597 
C 2214 1967 2669 2402 2669 3035 
C 2669 3790 2067 4224 1395 4224 
C 691 4224 262 3604 262 3030 
C 262 2780 448 2748 525 2748 
C 589 2748 781 2787 781 3010 
C 781 3207 614 3264 525 3264 
C 486 3264 448 3258 422 3245 
C 544 3790 915 4058 1306 4058 
C 1862 4058 2227 3617 2227 3035 
C 2227 2479 1901 2000 1536 1584 
L 262 146 
L 262 0 
L 2515 0 
L 2669 989 
z
" transform="scale(0.015625)"/>
       </defs>
       <use xlink:href="#CMR17-31" transform="scale(0.996264)"/>
       <use xlink:href="#CMR17-30" transform="translate(45.690477 0)scale(0.996264)"/>
       <use xlink:href="#CMR17-32" transform="translate(91.380954 36.153639)scale(0.697382)"/>
      </g>
     </g>
    </g>
    <g id="xtick_5">
     <g id="line2d_5">
      <defs>
       <path id="m3e9bd79719" d="M 0 0 
L 0 -8 
" style="stroke: #262626; stroke-width: 2"/>
      </defs>
      <g>
       <use xlink:href="#m3e9bd79719" x="144" y="428.4" style="fill: #262626; stroke: #262626; stroke-width: 2"/>
      </g>
     </g>
    </g>
    <g id="xtick_6">
     <g id="line2d_6">
      <g>
       <use xlink:href="#m3e9bd79719" x="169.462857" y="428.4" style="fill: #262626; stroke: #262626; stroke-width: 2"/>
      </g>
     </g>
    </g>
    <g id="xtick_7">
     <g id="line2d_7">
      <g>
       <use xlink:href="#m3e9bd79719" x="190.267526" y="428.4" style="fill: #262626; stroke: #262626; stroke-width: 2"/>
      </g>
     </g>
    </g>
    <g id="xtick_8">
     <g id="line2d_8">
      <g>
       <use xlink:href="#m3e9bd79719" x="207.857622" y="428.4" style="fill: #262626; stroke: #262626; stroke-width: 2"/>
      </g>
     </g>
    </g>
    <g id="xtick_9">
     <g id="line2d_9">
      <g>
       <use xlink:href="#m3e9bd79719" x="223.094857" y="428.4" style="fill: #262626; stroke: #262626; stroke-width: 2"/>
      </g>
     </g>
    </g>
    <g id="xtick_10">
     <g id="line2d_10">
      <g>
       <use xlink:href="#m3e9bd79719" x="236.535051" y="428.4" style="fill: #262626; stroke: #262626; stroke-width: 2"/>
      </g>
     </g>
    </g>
    <g id="xtick_11">
     <g id="line2d_11">
      <g>
       <use xlink:href="#m3e9bd79719" x="327.652571" y="428.4" style="fill: #262626; stroke: #262626; stroke-width: 2"/>
      </g>
     </g>
    </g>
    <g id="xtick_12">
     <g id="line2d_12">
      <g>
       <use xlink:href="#m3e9bd79719" x="373.920097" y="428.4" style="fill: #262626; stroke: #262626; stroke-width: 2"/>
      </g>
     </g>
    </g>
    <g id="xtick_13">
     <g id="line2d_13">
      <g>
       <use xlink:href="#m3e9bd79719" x="406.747429" y="428.4" style="fill: #262626; stroke: #262626; stroke-width: 2"/>
      </g>
     </g>
    </g>
    <g id="xtick_14">
     <g id="line2d_14">
      <g>
       <use xlink:href="#m3e9bd79719" x="432.210285" y="428.4" style="fill: #262626; stroke: #262626; stroke-width: 2"/>
      </g>
     </g>
    </g>
    <g id="xtick_15">
     <g id="line2d_15">
      <g>
       <use xlink:href="#m3e9bd79719" x="453.014954" y="428.4" style="fill: #262626; stroke: #262626; stroke-width: 2"/>
      </g>
     </g>
    </g>
    <g id="xtick_16">
     <g id="line2d_16">
      <g>
       <use xlink:href="#m3e9bd79719" x="470.605051" y="428.4" style="fill: #262626; stroke: #262626; stroke-width: 2"/>
      </g>
     </g>
    </g>
    <g id="xtick_17">
     <g id="line2d_17">
      <g>
       <use xlink:href="#m3e9bd79719" x="485.842286" y="428.4" style="fill: #262626; stroke: #262626; stroke-width: 2"/>
      </g>
     </g>
    </g>
    <g id="xtick_18">
     <g id="line2d_18">
      <g>
       <use xlink:href="#m3e9bd79719" x="499.28248" y="428.4" style="fill: #262626; stroke: #262626; stroke-width: 2"/>
      </g>
     </g>
    </g>
    <g id="xtick_19">
     <g id="line2d_19">
      <g>
       <use xlink:href="#m3e9bd79719" x="590.4" y="428.4" style="fill: #262626; stroke: #262626; stroke-width: 2"/>
      </g>
     </g>
    </g>
    <g id="xtick_20">
     <g id="line2d_20">
      <g>
       <use xlink:href="#m3e9bd79719" x="636.667526" y="428.4" style="fill: #262626; stroke: #262626; stroke-width: 2"/>
      </g>
     </g>
    </g>
    <g id="xtick_21">
     <g id="line2d_21">
      <g>
       <use xlink:href="#m3e9bd79719" x="669.494857" y="428.4" style="fill: #262626; stroke: #262626; stroke-width: 2"/>
      </g>
     </g>
    </g>
    <g id="xtick_22">
     <g id="line2d_22">
      <g>
       <use xlink:href="#m3e9bd79719" x="694.957714" y="428.4" style="fill: #262626; stroke: #262626; stroke-width: 2"/>
      </g>
     </g>
    </g>
    <g id="xtick_23">
     <g id="line2d_23">
      <g>
       <use xlink:href="#m3e9bd79719" x="715.762383" y="428.4" style="fill: #262626; stroke: #262626; stroke-width: 2"/>
      </g>
     </g>
    </g>
    <g id="xtick_24">
     <g id="line2d_24">
      <g>
       <use xlink:href="#m3e9bd79719" x="733.35248" y="428.4" style="fill: #262626; stroke: #262626; stroke-width: 2"/>
      </g>
     </g>
    </g>
    <g id="xtick_25">
     <g id="line2d_25">
      <g>
       <use xlink:href="#m3e9bd79719" x="748.589715" y="428.4" style="fill: #262626; stroke: #262626; stroke-width: 2"/>
      </g>
     </g>
    </g>
    <g id="xtick_26">
     <g id="line2d_26">
      <g>
       <use xlink:href="#m3e9bd79719" x="762.029908" y="428.4" style="fill: #262626; stroke: #262626; stroke-width: 2"/>
      </g>
     </g>
    </g>
    <g id="xtick_27">
     <g id="line2d_27">
      <g>
       <use xlink:href="#m3e9bd79719" x="853.147429" y="428.4" style="fill: #262626; stroke: #262626; stroke-width: 2"/>
      </g>
     </g>
    </g>
    <g id="xtick_28">
     <g id="line2d_28">
      <g>
       <use xlink:href="#m3e9bd79719" x="899.414954" y="428.4" style="fill: #262626; stroke: #262626; stroke-width: 2"/>
      </g>
     </g>
    </g>
    <g id="xtick_29">
     <g id="line2d_29">
      <g>
       <use xlink:href="#m3e9bd79719" x="932.242286" y="428.4" style="fill: #262626; stroke: #262626; stroke-width: 2"/>
      </g>
     </g>
    </g>
    <g id="xtick_30">
     <g id="line2d_30">
      <g>
       <use xlink:href="#m3e9bd79719" x="957.705143" y="428.4" style="fill: #262626; stroke: #262626; stroke-width: 2"/>
      </g>
     </g>
    </g>
    <g id="xtick_31">
     <g id="line2d_31">
      <g>
       <use xlink:href="#m3e9bd79719" x="978.509811" y="428.4" style="fill: #262626; stroke: #262626; stroke-width: 2"/>
      </g>
     </g>
    </g>
    <g id="xtick_32">
     <g id="line2d_32">
      <g>
       <use xlink:href="#m3e9bd79719" x="996.099908" y="428.4" style="fill: #262626; stroke: #262626; stroke-width: 2"/>
      </g>
     </g>
    </g>
    <g id="xtick_33">
     <g id="line2d_33">
      <g>
       <use xlink:href="#m3e9bd79719" x="1011.337143" y="428.4" style="fill: #262626; stroke: #262626; stroke-width: 2"/>
      </g>
     </g>
    </g>
    <g id="xtick_34">
     <g id="line2d_34">
      <g>
       <use xlink:href="#m3e9bd79719" x="1024.777337" y="428.4" style="fill: #262626; stroke: #262626; stroke-width: 2"/>
      </g>
     </g>
    </g>
    <g id="text_5">
     <!-- $t~(\mathrm{s})$ -->
     <g style="fill: #262626" transform="translate(569.800186 473.295108)scale(0.24 -0.24)">
      <defs>
       <path id="CMMI12-74" d="M 1286 2566 
L 1875 2566 
C 1997 2566 2061 2566 2061 2681 
C 2061 2752 2022 2752 1894 2752 
L 1331 2752 
L 1568 3692 
C 1594 3781 1594 3794 1594 3840 
C 1594 3943 1510 4000 1427 4000 
C 1376 4000 1229 3981 1178 3775 
L 928 2752 
L 326 2752 
C 198 2752 141 2752 141 2630 
C 141 2566 186 2566 307 2566 
L 877 2566 
L 454 881 
C 403 658 384 594 384 511 
C 384 211 595 -64 954 -64 
C 1600 -64 1946 868 1946 912 
C 1946 951 1920 970 1882 970 
C 1869 970 1843 970 1830 944 
C 1824 938 1818 931 1773 829 
C 1638 511 1344 64 973 64 
C 781 64 768 224 768 364 
C 768 370 768 492 787 568 
L 1286 2566 
z
" transform="scale(0.015625)"/>
       <path id="CMR17-28" d="M 1958 -1561 
C 1958 -1555 1958 -1542 1939 -1523 
C 1645 -1224 858 -407 858 1581 
C 858 3569 1632 4379 1946 4697 
C 1946 4704 1958 4717 1958 4736 
C 1958 4755 1939 4768 1914 4768 
C 1843 4768 1299 4296 986 3594 
C 666 2887 576 2199 576 1588 
C 576 1128 621 351 1005 -471 
C 1312 -1135 1837 -1600 1914 -1600 
C 1946 -1600 1958 -1587 1958 -1561 
z
" transform="scale(0.015625)"/>
       <path id="CMR17-73" d="M 1978 2697 
C 1978 2813 1971 2819 1933 2819 
C 1907 2819 1901 2813 1824 2717 
C 1805 2691 1747 2626 1728 2601 
C 1523 2819 1235 2819 1126 2819 
C 416 2819 160 2447 160 2076 
C 160 1498 813 1365 998 1325 
C 1402 1243 1542 1217 1677 1101 
C 1760 1025 1901 884 1901 654 
C 1901 384 1747 38 1158 38 
C 602 38 403 460 288 1021 
C 269 1110 269 1117 218 1117 
C 166 1117 160 1110 160 983 
L 160 63 
C 160 -51 166 -58 205 -58 
C 237 -58 243 -51 275 0 
C 314 57 410 211 448 276 
C 576 103 800 -64 1158 -64 
C 1792 -64 2131 283 2131 784 
C 2131 1112 1958 1285 1875 1362 
C 1683 1561 1459 1606 1190 1657 
C 838 1735 390 1825 390 2217 
C 390 2383 480 2737 1126 2737 
C 1811 2737 1850 2094 1862 1888 
C 1869 1856 1901 1849 1920 1849 
C 1978 1849 1978 1869 1978 1978 
L 1978 2697 
z
" transform="scale(0.015625)"/>
       <path id="CMR17-29" d="M 1683 1581 
C 1683 2040 1638 2817 1254 3639 
C 947 4303 422 4768 346 4768 
C 326 4768 301 4761 301 4729 
C 301 4717 307 4710 314 4697 
C 621 4378 1402 3568 1402 1584 
C 1402 -407 627 -1217 314 -1537 
C 307 -1549 301 -1556 301 -1568 
C 301 -1600 326 -1600 346 -1600 
C 416 -1600 960 -1128 1274 -426 
C 1594 281 1683 969 1683 1581 
z
" transform="scale(0.015625)"/>
      </defs>
      <use xlink:href="#CMMI12-74" transform="scale(0.996264)"/>
      <use xlink:href="#CMR17-28" transform="translate(65.302297 0)scale(0.996264)"/>
      <use xlink:href="#CMR17-73" transform="translate(100.583064 0)scale(0.996264)"/>
      <use xlink:href="#CMR17-29" transform="translate(136.384402 0)scale(0.996264)"/>
     </g>
    </g>
   </g>
   <g id="matplotlib.axis_2">
    <g id="ytick_1">
     <g id="line2d_35">
      <defs>
       <path id="me87837befe" d="M 0 0 
L 12 0 
" style="stroke: #262626; stroke-width: 2.5"/>
      </defs>
      <g>
       <use xlink:href="#me87837befe" x="144" y="370.859862" style="fill: #262626; stroke: #262626; stroke-width: 2.5"/>
      </g>
     </g>
     <g id="text_6">
      <!-- $\mathdefault{10^{-30}}$ -->
      <g style="fill: #262626" transform="translate(93.440587 378.470209)scale(0.22 -0.22)">
       <defs>
        <path id="CMR17-33" d="M 1414 2157 
C 1984 2157 2234 1662 2234 1090 
C 2234 320 1824 25 1453 25 
C 1114 25 563 194 390 693 
C 422 680 454 680 486 680 
C 640 680 755 782 755 948 
C 755 1133 614 1216 486 1216 
C 378 1216 211 1165 211 926 
C 211 335 787 -128 1466 -128 
C 2176 -128 2720 430 2720 1085 
C 2720 1707 2208 2157 1600 2227 
C 2086 2328 2554 2756 2554 3329 
C 2554 3820 2048 4179 1472 4179 
C 890 4179 378 3829 378 3329 
C 378 3110 544 3072 627 3072 
C 762 3072 877 3155 877 3321 
C 877 3486 762 3569 627 3569 
C 602 3569 570 3569 544 3557 
C 730 3959 1235 4032 1459 4032 
C 1683 4032 2106 3925 2106 3320 
C 2106 3143 2080 2828 1862 2550 
C 1670 2304 1453 2304 1242 2284 
C 1210 2284 1062 2269 1037 2269 
C 992 2263 966 2257 966 2208 
C 966 2163 973 2157 1101 2157 
L 1414 2157 
z
" transform="scale(0.015625)"/>
       </defs>
       <use xlink:href="#CMR17-31" transform="scale(0.996264)"/>
       <use xlink:href="#CMR17-30" transform="translate(45.690477 0)scale(0.996264)"/>
       <use xlink:href="#CMSY10-0" transform="translate(91.380954 36.153639)scale(0.697382)"/>
       <use xlink:href="#CMR17-33" transform="translate(145.621947 36.153639)scale(0.697382)"/>
       <use xlink:href="#CMR17-30" transform="translate(177.605129 36.153639)scale(0.697382)"/>
      </g>
     </g>
    </g>
    <g id="ytick_2">
     <g id="line2d_36">
      <g>
       <use xlink:href="#me87837befe" x="144" y="274.753537" style="fill: #262626; stroke: #262626; stroke-width: 2.5"/>
      </g>
     </g>
     <g id="text_7">
      <!-- $\mathdefault{10^{-28}}$ -->
      <g style="fill: #262626" transform="translate(93.440587 282.363884)scale(0.22 -0.22)">
       <defs>
        <path id="CMR17-38" d="M 1741 2264 
C 2144 2467 2554 2773 2554 3263 
C 2554 3841 1990 4179 1472 4179 
C 890 4179 378 3759 378 3180 
C 378 3021 416 2747 666 2505 
C 730 2442 998 2251 1171 2130 
C 883 1983 211 1634 211 934 
C 211 279 838 -128 1459 -128 
C 2144 -128 2720 362 2720 1010 
C 2720 1590 2330 1857 2074 2029 
L 1741 2264 
z
M 902 2822 
C 851 2854 595 3051 595 3351 
C 595 3739 998 4032 1459 4032 
C 1965 4032 2336 3676 2336 3262 
C 2336 2669 1670 2331 1638 2331 
C 1632 2331 1626 2331 1574 2370 
L 902 2822 
z
M 2080 1519 
C 2176 1449 2483 1240 2483 851 
C 2483 381 2010 25 1472 25 
C 890 25 448 438 448 940 
C 448 1443 838 1862 1280 2060 
L 2080 1519 
z
" transform="scale(0.015625)"/>
       </defs>
       <use xlink:href="#CMR17-31" transform="scale(0.996264)"/>
       <use xlink:href="#CMR17-30" transform="translate(45.690477 0)scale(0.996264)"/>
       <use xlink:href="#CMSY10-0" transform="translate(91.380954 36.153639)scale(0.697382)"/>
       <use xlink:href="#CMR17-32" transform="translate(145.621947 36.153639)scale(0.697382)"/>
       <use xlink:href="#CMR17-38" transform="translate(177.605129 36.153639)scale(0.697382)"/>
      </g>
     </g>
    </g>
    <g id="ytick_3">
     <g id="line2d_37">
      <g>
       <use xlink:href="#me87837befe" x="144" y="178.647212" style="fill: #262626; stroke: #262626; stroke-width: 2.5"/>
      </g>
     </g>
     <g id="text_8">
      <!-- $\mathdefault{10^{-26}}$ -->
      <g style="fill: #262626" transform="translate(93.440587 186.257559)scale(0.22 -0.22)">
       <defs>
        <path id="CMR17-36" d="M 678 2176 
C 678 3690 1395 4032 1811 4032 
C 1946 4032 2272 4009 2400 3776 
C 2298 3776 2106 3776 2106 3553 
C 2106 3381 2246 3323 2336 3323 
C 2394 3323 2566 3348 2566 3560 
C 2566 3954 2246 4179 1805 4179 
C 1043 4179 243 3390 243 1984 
C 243 253 966 -128 1478 -128 
C 2099 -128 2688 427 2688 1283 
C 2688 2081 2170 2662 1517 2662 
C 1126 2662 838 2407 678 1960 
L 678 2176 
z
M 1478 25 
C 691 25 691 1200 691 1436 
C 691 1896 909 2560 1504 2560 
C 1613 2560 1926 2560 2138 2120 
C 2253 1870 2253 1609 2253 1289 
C 2253 944 2253 690 2118 434 
C 1978 171 1773 25 1478 25 
z
" transform="scale(0.015625)"/>
       </defs>
       <use xlink:href="#CMR17-31" transform="scale(0.996264)"/>
       <use xlink:href="#CMR17-30" transform="translate(45.690477 0)scale(0.996264)"/>
       <use xlink:href="#CMSY10-0" transform="translate(91.380954 36.153639)scale(0.697382)"/>
       <use xlink:href="#CMR17-32" transform="translate(145.621947 36.153639)scale(0.697382)"/>
       <use xlink:href="#CMR17-36" transform="translate(177.605129 36.153639)scale(0.697382)"/>
      </g>
     </g>
    </g>
    <g id="ytick_4">
     <g id="line2d_38">
      <g>
       <use xlink:href="#me87837befe" x="144" y="82.540887" style="fill: #262626; stroke: #262626; stroke-width: 2.5"/>
      </g>
     </g>
     <g id="text_9">
      <!-- $\mathdefault{10^{-24}}$ -->
      <g style="fill: #262626" transform="translate(93.440587 90.151234)scale(0.22 -0.22)">
       <defs>
        <path id="CMR17-34" d="M 2150 4122 
C 2150 4256 2144 4256 2029 4256 
L 128 1254 
L 128 1088 
L 1779 1088 
L 1779 457 
C 1779 224 1766 160 1318 160 
L 1197 160 
L 1197 0 
C 1402 0 1747 0 1965 0 
C 2182 0 2528 0 2733 0 
L 2733 160 
L 2611 160 
C 2163 160 2150 224 2150 457 
L 2150 1088 
L 2803 1088 
L 2803 1254 
L 2150 1254 
L 2150 4122 
z
M 1798 3703 
L 1798 1254 
L 256 1254 
L 1798 3703 
z
" transform="scale(0.015625)"/>
       </defs>
       <use xlink:href="#CMR17-31" transform="scale(0.996264)"/>
       <use xlink:href="#CMR17-30" transform="translate(45.690477 0)scale(0.996264)"/>
       <use xlink:href="#CMSY10-0" transform="translate(91.380954 36.153639)scale(0.697382)"/>
       <use xlink:href="#CMR17-32" transform="translate(145.621947 36.153639)scale(0.697382)"/>
       <use xlink:href="#CMR17-34" transform="translate(177.605129 36.153639)scale(0.697382)"/>
      </g>
     </g>
    </g>
    <g id="text_10">
     <!-- $\langle \Delta x_i^4 \rangle_c$ -->
     <g style="fill: #262626" transform="translate(83.319194 276.629631)rotate(-90)scale(0.24 -0.24)">
      <defs>
       <path id="CMSY10-68" d="M 2099 4557 
C 2131 4627 2131 4640 2131 4672 
C 2131 4742 2074 4800 2003 4800 
C 1946 4800 1901 4768 1856 4653 
L 736 1715 
C 723 1677 704 1638 704 1600 
C 704 1581 704 1568 736 1491 
L 1856 -1446 
C 1882 -1517 1914 -1600 2003 -1600 
C 2074 -1600 2131 -1542 2131 -1472 
C 2131 -1453 2131 -1440 2099 -1370 
L 966 1600 
L 2099 4557 
z
" transform="scale(0.015625)"/>
       <path id="CMR17-1" d="M 2598 4403 
C 2547 4512 2522 4512 2470 4512 
C 2394 4512 2387 4499 2342 4409 
L 269 109 
C 262 96 237 38 237 32 
C 237 6 243 0 358 0 
L 4576 0 
C 4691 0 4698 6 4698 32 
C 4698 38 4672 96 4666 109 
L 2598 4403 
z
M 2310 4038 
L 4083 358 
L 531 358 
L 2310 4038 
z
" transform="scale(0.015625)"/>
       <path id="CMMI12-78" d="M 3034 2606 
C 2829 2567 2752 2414 2752 2293 
C 2752 2139 2874 2088 2963 2088 
C 3155 2088 3290 2254 3290 2427 
C 3290 2695 2982 2816 2714 2816 
C 2323 2816 2106 2433 2048 2312 
C 1901 2816 1504 2816 1389 2816 
C 736 2816 390 1980 390 1839 
C 390 1814 416 1782 461 1782 
C 512 1782 525 1820 538 1846 
C 755 2555 1184 2689 1370 2689 
C 1658 2689 1715 2420 1715 2267 
C 1715 2127 1677 1980 1600 1673 
L 1382 798 
C 1286 415 1101 64 762 64 
C 730 64 570 64 435 147 
C 666 192 717 383 717 460 
C 717 588 621 664 499 664 
C 346 664 179 530 179 326 
C 179 57 480 -64 755 -64 
C 1062 -64 1280 179 1414 441 
C 1517 64 1837 -64 2074 -64 
C 2726 -64 3072 773 3072 913 
C 3072 945 3046 971 3008 971 
C 2950 971 2944 939 2925 888 
C 2752 326 2381 64 2093 64 
C 1869 64 1747 230 1747 492 
C 1747 632 1773 734 1875 1156 
L 2099 2024 
C 2195 2408 2413 2689 2707 2689 
C 2720 2689 2899 2689 3034 2606 
z
" transform="scale(0.015625)"/>
       <path id="CMMI12-69" d="M 1811 913 
C 1811 945 1786 971 1747 971 
C 1690 971 1683 952 1651 843 
C 1485 262 1222 64 1011 64 
C 934 64 845 83 845 275 
C 845 447 922 639 992 830 
L 1440 2018 
C 1459 2069 1504 2184 1504 2305 
C 1504 2574 1312 2816 998 2816 
C 410 2816 173 1890 173 1839 
C 173 1814 198 1782 243 1782 
C 301 1782 307 1807 333 1896 
C 486 2428 730 2682 979 2682 
C 1037 2682 1146 2682 1146 2478 
C 1146 2312 1062 2101 1011 1961 
L 563 773 
C 525 671 486 568 486 453 
C 486 166 685 -64 992 -64 
C 1581 -64 1811 869 1811 913 
z
M 1760 4013 
C 1760 4109 1683 4224 1542 4224 
C 1395 4224 1229 4083 1229 3917 
C 1229 3758 1363 3707 1440 3707 
C 1613 3707 1760 3873 1760 4013 
z
" transform="scale(0.015625)"/>
       <path id="CMSY10-69" d="M 1747 1491 
C 1779 1568 1779 1581 1779 1600 
C 1779 1619 1779 1632 1747 1709 
L 627 4653 
C 589 4762 550 4800 480 4800 
C 410 4800 352 4742 352 4672 
C 352 4653 352 4640 384 4570 
L 1517 1600 
L 384 -1357 
C 352 -1427 352 -1440 352 -1472 
C 352 -1542 410 -1600 480 -1600 
C 563 -1600 589 -1536 614 -1472 
L 1747 1491 
z
" transform="scale(0.015625)"/>
       <path id="CMMI12-63" d="M 2502 2431 
C 2381 2431 2323 2431 2234 2355 
C 2195 2323 2125 2227 2125 2125 
C 2125 1997 2221 1920 2342 1920 
C 2496 1920 2669 2044 2669 2292 
C 2669 2588 2374 2816 1933 2816 
C 1094 2816 256 1903 256 996 
C 256 441 602 -64 1254 -64 
C 2125 -64 2675 622 2675 706 
C 2675 744 2637 776 2611 776 
C 2592 776 2586 770 2528 713 
C 2118 162 1510 64 1267 64 
C 826 64 685 446 685 764 
C 685 988 794 1605 1024 2039 
C 1190 2338 1536 2682 1939 2682 
C 2022 2682 2374 2682 2502 2431 
z
" transform="scale(0.015625)"/>
      </defs>
      <use xlink:href="#CMSY10-68" transform="scale(0.996264)"/>
      <use xlink:href="#CMR17-1" transform="translate(38.743734 0)scale(0.996264)"/>
      <use xlink:href="#CMMI12-78" transform="translate(115.663324 0)scale(0.996264)"/>
      <use xlink:href="#CMR17-34" transform="translate(171.097383 36.153639)scale(0.697382)"/>
      <use xlink:href="#CMMI12-69" transform="translate(171.097383 -25.505809)scale(0.697382)"/>
      <use xlink:href="#CMSY10-69" transform="translate(203.578697 0)scale(0.996264)"/>
      <use xlink:href="#CMMI12-63" transform="translate(242.322431 -14.943915)scale(0.697382)"/>
     </g>
    </g>
   </g>
   <g id="LineCollection_1">
    <path d="M 248.557714 316.467713 
L 248.557714 311.088558 
" clip-path="url(#peadba29634)" style="fill: none; stroke: #1a1a1a; stroke-width: 3"/>
    <path d="M 327.652571 281.515955 
L 327.652571 277.298992 
" clip-path="url(#peadba29634)" style="fill: none; stroke: #1a1a1a; stroke-width: 3"/>
    <path d="M 373.920097 280.819182 
L 373.920097 252.747326 
" clip-path="url(#peadba29634)" style="fill: none; stroke: #1a1a1a; stroke-width: 3"/>
    <path d="M 406.747429 272.726399 
L 406.747429 238.108726 
" clip-path="url(#peadba29634)" style="fill: none; stroke: #1a1a1a; stroke-width: 3"/>
    <path d="M 432.210285 259.520644 
L 432.210285 228.849943 
" clip-path="url(#peadba29634)" style="fill: none; stroke: #1a1a1a; stroke-width: 3"/>
    <path d="M 453.014954 243.781548 
L 453.014954 222.723084 
" clip-path="url(#peadba29634)" style="fill: none; stroke: #1a1a1a; stroke-width: 3"/>
    <path d="M 470.605051 237.020506 
L 470.605051 218.76962 
" clip-path="url(#peadba29634)" style="fill: none; stroke: #1a1a1a; stroke-width: 3"/>
    <path d="M 485.842286 232.383307 
L 485.842286 217.028039 
" clip-path="url(#peadba29634)" style="fill: none; stroke: #1a1a1a; stroke-width: 3"/>
    <path d="M 499.28248 230.798765 
L 499.28248 217.510267 
" clip-path="url(#peadba29634)" style="fill: none; stroke: #1a1a1a; stroke-width: 3"/>
    <path d="M 511.305143 222.53239 
L 511.305143 221.794705 
" clip-path="url(#peadba29634)" style="fill: none; stroke: #1a1a1a; stroke-width: 3"/>
    <path d="M 590.4 178.586443 
L 590.4 162.42465 
" clip-path="url(#peadba29634)" style="fill: none; stroke: #1a1a1a; stroke-width: 3"/>
    <path d="M 636.667526 194.870396 
L 636.667526 171.252261 
" clip-path="url(#peadba29634)" style="fill: none; stroke: #1a1a1a; stroke-width: 3"/>
    <path clip-path="url(#peadba29634)" style="fill: none; stroke: #1a1a1a; stroke-width: 3"/>
    <path clip-path="url(#peadba29634)" style="fill: none; stroke: #1a1a1a; stroke-width: 3"/>
    <path d="M 715.762383 166.711052 
L 715.762383 128.284118 
" clip-path="url(#peadba29634)" style="fill: none; stroke: #1a1a1a; stroke-width: 3"/>
    <path d="M 733.35248 153.769092 
L 733.35248 118.961677 
" clip-path="url(#peadba29634)" style="fill: none; stroke: #1a1a1a; stroke-width: 3"/>
    <path d="M 748.589715 144.360351 
L 748.589715 112.085363 
" clip-path="url(#peadba29634)" style="fill: none; stroke: #1a1a1a; stroke-width: 3"/>
    <path d="M 762.029908 134.77291 
L 762.029908 109.385162 
" clip-path="url(#peadba29634)" style="fill: none; stroke: #1a1a1a; stroke-width: 3"/>
    <path d="M 774.052571 136.103728 
L 774.052571 112.315144 
" clip-path="url(#peadba29634)" style="fill: none; stroke: #1a1a1a; stroke-width: 3"/>
   </g>
   <g id="line2d_39">
    <defs>
     <path id="m8ae6988402" d="M 3 0 
L -3 -0 
" style="stroke: #1a1a1a; stroke-width: 0.8"/>
    </defs>
    <g clip-path="url(#peadba29634)">
     <use xlink:href="#m8ae6988402" x="248.557714" y="316.467713" style="fill: #1a1a1a; stroke: #1a1a1a; stroke-width: 0.8"/>
     <use xlink:href="#m8ae6988402" x="327.652571" y="281.515955" style="fill: #1a1a1a; stroke: #1a1a1a; stroke-width: 0.8"/>
     <use xlink:href="#m8ae6988402" x="373.920097" y="280.819182" style="fill: #1a1a1a; stroke: #1a1a1a; stroke-width: 0.8"/>
     <use xlink:href="#m8ae6988402" x="406.747429" y="272.726399" style="fill: #1a1a1a; stroke: #1a1a1a; stroke-width: 0.8"/>
     <use xlink:href="#m8ae6988402" x="432.210285" y="259.520644" style="fill: #1a1a1a; stroke: #1a1a1a; stroke-width: 0.8"/>
     <use xlink:href="#m8ae6988402" x="453.014954" y="243.781548" style="fill: #1a1a1a; stroke: #1a1a1a; stroke-width: 0.8"/>
     <use xlink:href="#m8ae6988402" x="470.605051" y="237.020506" style="fill: #1a1a1a; stroke: #1a1a1a; stroke-width: 0.8"/>
     <use xlink:href="#m8ae6988402" x="485.842286" y="232.383307" style="fill: #1a1a1a; stroke: #1a1a1a; stroke-width: 0.8"/>
     <use xlink:href="#m8ae6988402" x="499.28248" y="230.798765" style="fill: #1a1a1a; stroke: #1a1a1a; stroke-width: 0.8"/>
     <use xlink:href="#m8ae6988402" x="511.305143" y="222.53239" style="fill: #1a1a1a; stroke: #1a1a1a; stroke-width: 0.8"/>
     <use xlink:href="#m8ae6988402" x="590.4" y="178.586443" style="fill: #1a1a1a; stroke: #1a1a1a; stroke-width: 0.8"/>
     <use xlink:href="#m8ae6988402" x="636.667526" y="194.870396" style="fill: #1a1a1a; stroke: #1a1a1a; stroke-width: 0.8"/>
     <use xlink:href="#m8ae6988402" x="661.264633" y="35252.2" style="fill: #1a1a1a; stroke: #1a1a1a; stroke-width: 0.8"/>
     <use xlink:href="#m8ae6988402" x="700.170568" y="35252.2" style="fill: #1a1a1a; stroke: #1a1a1a; stroke-width: 0.8"/>
     <use xlink:href="#m8ae6988402" x="715.762383" y="166.711052" style="fill: #1a1a1a; stroke: #1a1a1a; stroke-width: 0.8"/>
     <use xlink:href="#m8ae6988402" x="733.35248" y="153.769092" style="fill: #1a1a1a; stroke: #1a1a1a; stroke-width: 0.8"/>
     <use xlink:href="#m8ae6988402" x="748.589715" y="144.360351" style="fill: #1a1a1a; stroke: #1a1a1a; stroke-width: 0.8"/>
     <use xlink:href="#m8ae6988402" x="762.029908" y="134.77291" style="fill: #1a1a1a; stroke: #1a1a1a; stroke-width: 0.8"/>
     <use xlink:href="#m8ae6988402" x="774.052571" y="136.103728" style="fill: #1a1a1a; stroke: #1a1a1a; stroke-width: 0.8"/>
    </g>
   </g>
   <g id="line2d_40">
    <g clip-path="url(#peadba29634)">
     <use xlink:href="#m8ae6988402" x="248.557714" y="311.088558" style="fill: #1a1a1a; stroke: #1a1a1a; stroke-width: 0.8"/>
     <use xlink:href="#m8ae6988402" x="327.652571" y="277.298992" style="fill: #1a1a1a; stroke: #1a1a1a; stroke-width: 0.8"/>
     <use xlink:href="#m8ae6988402" x="373.920097" y="252.747326" style="fill: #1a1a1a; stroke: #1a1a1a; stroke-width: 0.8"/>
     <use xlink:href="#m8ae6988402" x="406.747429" y="238.108726" style="fill: #1a1a1a; stroke: #1a1a1a; stroke-width: 0.8"/>
     <use xlink:href="#m8ae6988402" x="432.210285" y="228.849943" style="fill: #1a1a1a; stroke: #1a1a1a; stroke-width: 0.8"/>
     <use xlink:href="#m8ae6988402" x="453.014954" y="222.723084" style="fill: #1a1a1a; stroke: #1a1a1a; stroke-width: 0.8"/>
     <use xlink:href="#m8ae6988402" x="470.605051" y="218.76962" style="fill: #1a1a1a; stroke: #1a1a1a; stroke-width: 0.8"/>
     <use xlink:href="#m8ae6988402" x="485.842286" y="217.028039" style="fill: #1a1a1a; stroke: #1a1a1a; stroke-width: 0.8"/>
     <use xlink:href="#m8ae6988402" x="499.28248" y="217.510267" style="fill: #1a1a1a; stroke: #1a1a1a; stroke-width: 0.8"/>
     <use xlink:href="#m8ae6988402" x="511.305143" y="221.794705" style="fill: #1a1a1a; stroke: #1a1a1a; stroke-width: 0.8"/>
     <use xlink:href="#m8ae6988402" x="590.4" y="162.42465" style="fill: #1a1a1a; stroke: #1a1a1a; stroke-width: 0.8"/>
     <use xlink:href="#m8ae6988402" x="636.667526" y="171.252261" style="fill: #1a1a1a; stroke: #1a1a1a; stroke-width: 0.8"/>
     <use xlink:href="#m8ae6988402" x="661.268786" y="35252.2" style="fill: #1a1a1a; stroke: #1a1a1a; stroke-width: 0.8"/>
     <use xlink:href="#m8ae6988402" x="700.166293" y="35252.2" style="fill: #1a1a1a; stroke: #1a1a1a; stroke-width: 0.8"/>
     <use xlink:href="#m8ae6988402" x="715.762383" y="128.284118" style="fill: #1a1a1a; stroke: #1a1a1a; stroke-width: 0.8"/>
     <use xlink:href="#m8ae6988402" x="733.35248" y="118.961677" style="fill: #1a1a1a; stroke: #1a1a1a; stroke-width: 0.8"/>
     <use xlink:href="#m8ae6988402" x="748.589715" y="112.085363" style="fill: #1a1a1a; stroke: #1a1a1a; stroke-width: 0.8"/>
     <use xlink:href="#m8ae6988402" x="762.029908" y="109.385162" style="fill: #1a1a1a; stroke: #1a1a1a; stroke-width: 0.8"/>
     <use xlink:href="#m8ae6988402" x="774.052571" y="112.315144" style="fill: #1a1a1a; stroke: #1a1a1a; stroke-width: 0.8"/>
    </g>
   </g>
   <g id="line2d_41">
    <path d="M -1 406.773356 
L 853.147429 94.347957 
L 853.147429 94.347957 
" clip-path="url(#peadba29634)" style="fill: none; stroke: #443a31; stroke-width: 3; stroke-linecap: round"/>
   </g>
   <g id="line2d_42">
    <path d="M 694.957714 138.072788 
L 1036.8 75.554182 
L 1036.8 75.554182 
" clip-path="url(#peadba29634)" style="fill: none; stroke: #b24b90; stroke-width: 3; stroke-linecap: round"/>
   </g>
   <g id="line2d_43">
    <defs>
     <path id="m85f2d7bf77" d="M 0 6.5 
C 1.72382 6.5 3.377269 5.815119 4.596194 4.596194 
C 5.815119 3.377269 6.5 1.72382 6.5 0 
C 6.5 -1.72382 5.815119 -3.377269 4.596194 -4.596194 
C 3.377269 -5.815119 1.72382 -6.5 0 -6.5 
C -1.72382 -6.5 -3.377269 -5.815119 -4.596194 -4.596194 
C -5.815119 -3.377269 -6.5 -1.72382 -6.5 0 
C -6.5 1.72382 -5.815119 3.377269 -4.596194 4.596194 
C -3.377269 5.815119 -1.72382 6.5 0 6.5 
z
" style="stroke: #1a1a1a; stroke-width: 0.8"/>
    </defs>
    <g clip-path="url(#peadba29634)">
     <use xlink:href="#m85f2d7bf77" x="248.557714" y="313.6053" style="fill: #443a31; stroke: #1a1a1a; stroke-width: 0.8"/>
     <use xlink:href="#m85f2d7bf77" x="327.652571" y="279.301141" style="fill: #443a31; stroke: #1a1a1a; stroke-width: 0.8"/>
     <use xlink:href="#m85f2d7bf77" x="373.920097" y="262.381278" style="fill: #443a31; stroke: #1a1a1a; stroke-width: 0.8"/>
     <use xlink:href="#m85f2d7bf77" x="406.747429" y="248.937428" style="fill: #443a31; stroke: #1a1a1a; stroke-width: 0.8"/>
     <use xlink:href="#m85f2d7bf77" x="432.210285" y="238.995106" style="fill: #443a31; stroke: #1a1a1a; stroke-width: 0.8"/>
     <use xlink:href="#m85f2d7bf77" x="453.014954" y="230.701726" style="fill: #443a31; stroke: #1a1a1a; stroke-width: 0.8"/>
     <use xlink:href="#m85f2d7bf77" x="470.605051" y="225.960446" style="fill: #443a31; stroke: #1a1a1a; stroke-width: 0.8"/>
     <use xlink:href="#m85f2d7bf77" x="485.842286" y="223.324153" style="fill: #443a31; stroke: #1a1a1a; stroke-width: 0.8"/>
     <use xlink:href="#m85f2d7bf77" x="499.28248" y="223.114233" style="fill: #443a31; stroke: #1a1a1a; stroke-width: 0.8"/>
     <use xlink:href="#m85f2d7bf77" x="511.305143" y="222.160288" style="fill: #443a31; stroke: #1a1a1a; stroke-width: 0.8"/>
     <use xlink:href="#m85f2d7bf77" x="590.4" y="168.978622" style="fill: #443a31; stroke: #1a1a1a; stroke-width: 0.8"/>
     <use xlink:href="#m85f2d7bf77" x="636.667526" y="179.884608" style="fill: #443a31; stroke: #1a1a1a; stroke-width: 0.8"/>
     <use xlink:href="#m85f2d7bf77" x="661.267269" y="35252.2" style="fill: #443a31; stroke: #1a1a1a; stroke-width: 0.8"/>
     <use xlink:href="#m85f2d7bf77" x="700.16756" y="35252.2" style="fill: #443a31; stroke: #1a1a1a; stroke-width: 0.8"/>
     <use xlink:href="#m85f2d7bf77" x="715.762383" y="139.677212" style="fill: #443a31; stroke: #1a1a1a; stroke-width: 0.8"/>
     <use xlink:href="#m85f2d7bf77" x="733.35248" y="129.820607" style="fill: #443a31; stroke: #1a1a1a; stroke-width: 0.8"/>
     <use xlink:href="#m85f2d7bf77" x="748.589715" y="122.521293" style="fill: #443a31; stroke: #1a1a1a; stroke-width: 0.8"/>
     <use xlink:href="#m85f2d7bf77" x="762.029908" y="118.435384" style="fill: #443a31; stroke: #1a1a1a; stroke-width: 0.8"/>
     <use xlink:href="#m85f2d7bf77" x="774.052571" y="120.988925" style="fill: #443a31; stroke: #1a1a1a; stroke-width: 0.8"/>
    </g>
   </g>
   <g id="patch_3">
    <path d="M 144 428.4 
L 144 58.752 
" style="fill: none; stroke: #262626; stroke-width: 2.5; stroke-linejoin: miter; stroke-linecap: square"/>
   </g>
   <g id="patch_4">
    <path d="M 1036.8 428.4 
L 1036.8 58.752 
" style="fill: none; stroke: #262626; stroke-width: 2.5; stroke-linejoin: miter; stroke-linecap: square"/>
   </g>
   <g id="patch_5">
    <path d="M 144 428.4 
L 1036.8 428.4 
" style="fill: none; stroke: #262626; stroke-width: 2.5; stroke-linejoin: miter; stroke-linecap: square"/>
   </g>
   <g id="patch_6">
    <path d="M 144 58.752 
L 1036.8 58.752 
" style="fill: none; stroke: #262626; stroke-width: 2.5; stroke-linejoin: miter; stroke-linecap: square"/>
   </g>
   <g id="legend_1">
    <g id="line2d_44">
     <path d="M 160.2 83.249284 
L 178.2 83.249284 
L 196.2 83.249284 
" style="fill: none; stroke: #443a31; stroke-width: 3; stroke-linecap: round"/>
    </g>
    <g id="text_11">
     <!-- $\lim\limits_{t \to 0} \langle \Delta x_\|^4 \rangle_c$ -->
     <g style="fill: #262626" transform="translate(210.6 89.549284)scale(0.18 -0.18)">
      <defs>
       <path id="CMR17-6c" d="M 979 4396 
L 218 4326 
L 218 4160 
C 595 4160 653 4122 653 3817 
L 653 426 
C 653 184 627 153 218 153 
L 218 -13 
C 371 0 653 0 813 0 
C 979 0 1261 0 1414 -13 
L 1414 153 
C 1005 153 979 178 979 426 
L 979 4396 
z
" transform="scale(0.015625)"/>
       <path id="CMR17-69" d="M 992 3909 
C 992 4049 877 4170 730 4170 
C 589 4170 467 4056 467 3909 
C 467 3769 582 3648 730 3648 
C 870 3648 992 3763 992 3909 
z
M 243 2706 
L 243 2541 
C 602 2541 653 2502 653 2197 
L 653 427 
C 653 184 627 153 218 153 
L 218 -13 
C 371 0 646 0 806 0 
C 960 0 1222 0 1370 -13 
L 1370 153 
C 992 153 979 191 979 420 
L 979 2776 
L 243 2706 
z
" transform="scale(0.015625)"/>
       <path id="CMR17-6d" d="M 4326 1933 
C 4326 2252 4269 2790 3507 2790 
C 3072 2790 2771 2496 2656 2151 
L 2650 2151 
C 2573 2676 2195 2790 1837 2790 
C 1331 2790 1069 2400 973 2144 
L 966 2144 
L 966 2790 
L 211 2720 
L 211 2554 
C 589 2554 646 2515 646 2208 
L 646 428 
C 646 184 621 153 211 153 
L 211 -13 
C 365 0 646 0 813 0 
C 979 0 1267 0 1421 -13 
L 1421 153 
C 1011 153 986 178 986 428 
L 986 1658 
C 986 2247 1344 2688 1792 2688 
C 2266 2688 2317 2266 2317 1958 
L 2317 428 
C 2317 184 2291 153 1882 153 
L 1882 -13 
C 2035 0 2317 0 2483 0 
C 2650 0 2938 0 3091 -13 
L 3091 153 
C 2682 153 2656 178 2656 428 
L 2656 1658 
C 2656 2247 3014 2688 3462 2688 
C 3936 2688 3987 2266 3987 1958 
L 3987 428 
C 3987 184 3962 153 3552 153 
L 3552 -13 
C 3706 0 3987 0 4154 0 
C 4320 0 4608 0 4762 -13 
L 4762 153 
C 4352 153 4326 178 4326 428 
L 4326 1933 
z
" transform="scale(0.015625)"/>
       <path id="CMSY10-21" d="M 5338 1472 
C 4986 1203 4813 941 4762 858 
C 4474 416 4422 13 4422 6 
C 4422 -70 4499 -70 4550 -70 
C 4659 -70 4666 -58 4691 58 
C 4838 685 5216 1222 5939 1517 
C 6016 1542 6035 1555 6035 1600 
C 6035 1645 5997 1664 5984 1670 
C 5702 1779 4928 2099 4685 3174 
C 4666 3251 4659 3270 4550 3270 
C 4499 3270 4422 3270 4422 3193 
C 4422 3180 4480 2777 4749 2349 
C 4877 2157 5062 1933 5338 1728 
L 582 1728 
C 467 1728 352 1728 352 1600 
C 352 1472 467 1472 582 1472 
L 5338 1472 
z
" transform="scale(0.015625)"/>
       <path id="CMSY10-6b" d="M 1103 4582 
C 1103 4685 1103 4800 975 4800 
C 847 4800 847 4659 847 4563 
L 847 -1363 
C 847 -1466 847 -1600 975 -1600 
C 1103 -1600 1103 -1485 1103 -1382 
L 1103 4582 
z
M 2351 4563 
C 2351 4666 2351 4800 2223 4800 
C 2095 4800 2095 4685 2095 4582 
L 2095 -1382 
C 2095 -1485 2095 -1600 2223 -1600 
C 2351 -1600 2351 -1459 2351 -1363 
L 2351 4563 
z
" transform="scale(0.015625)"/>
      </defs>
      <use xlink:href="#CMR17-6c" transform="scale(0.996264)"/>
      <use xlink:href="#CMR17-69" transform="translate(24.871058 0)scale(0.996264)"/>
      <use xlink:href="#CMR17-6d" transform="translate(49.742117 0)scale(0.996264)"/>
      <use xlink:href="#CMMI12-74" transform="translate(0.140921 -61.558432)scale(0.697382)"/>
      <use xlink:href="#CMSY10-21" transform="translate(24.79923 -61.558432)scale(0.697382)"/>
      <use xlink:href="#CMR17-30" transform="translate(94.537604 -61.558432)scale(0.697382)"/>
      <use xlink:href="#CMSY10-68" transform="translate(126.661707 0)scale(0.996264)"/>
      <use xlink:href="#CMR17-1" transform="translate(165.405441 0)scale(0.996264)"/>
      <use xlink:href="#CMMI12-78" transform="translate(242.325031 0)scale(0.996264)"/>
      <use xlink:href="#CMR17-34" transform="translate(297.75909 36.153639)scale(0.697382)"/>
      <use xlink:href="#CMSY10-6b" transform="translate(297.75909 -32.089792)scale(0.697382)"/>
      <use xlink:href="#CMSY10-69" transform="translate(333.126432 0)scale(0.996264)"/>
      <use xlink:href="#CMMI12-63" transform="translate(371.870166 -14.943915)scale(0.697382)"/>
     </g>
    </g>
    <g id="line2d_45">
     <path d="M 160.2 117.924988 
L 178.2 117.924988 
L 196.2 117.924988 
" style="fill: none; stroke: #b24b90; stroke-width: 3; stroke-linecap: round"/>
    </g>
    <g id="text_12">
     <!-- $\lim\limits_{t \to +\infty} \langle \Delta x_\|^4 \rangle_c$ -->
     <g style="fill: #262626" transform="translate(210.6 124.224988)scale(0.18 -0.18)">
      <defs>
       <path id="CMR17-2b" d="M 2413 1472 
L 4109 1472 
C 4198 1472 4307 1472 4307 1580 
C 4307 1695 4205 1695 4109 1695 
L 2413 1695 
L 2413 3386 
C 2413 3475 2413 3584 2304 3584 
C 2189 3584 2189 3482 2189 3386 
L 2189 1695 
L 493 1695 
C 403 1695 294 1695 294 1587 
C 294 1472 397 1472 493 1472 
L 2189 1472 
L 2189 -218 
C 2189 -307 2189 -416 2298 -416 
C 2413 -416 2413 -314 2413 -218 
L 2413 1472 
z
" transform="scale(0.015625)"/>
       <path id="CMSY10-31" d="M 3251 1730 
C 2906 2166 2829 2262 2630 2422 
C 2272 2710 1914 2825 1587 2825 
C 838 2825 352 2122 352 1374 
C 352 639 826 -70 1562 -70 
C 2298 -70 2829 511 3142 1022 
C 3488 588 3565 492 3763 332 
C 4122 45 4480 -70 4806 -70 
C 5555 -70 6042 633 6042 1380 
C 6042 2115 5568 2825 4832 2825 
C 4096 2825 3565 2242 3251 1730 
z
M 3418 1514 
C 3680 1975 4154 2620 4877 2620 
C 5555 2620 5901 1955 5901 1380 
C 5901 753 5472 236 4909 236 
C 4538 236 4250 505 4115 638 
C 3955 811 3808 1009 3418 1514 
z
M 2976 1240 
C 2714 780 2240 134 1517 134 
C 838 134 493 799 493 1374 
C 493 2000 922 2518 1485 2518 
C 1856 2518 2144 2249 2278 2115 
C 2438 1943 2586 1744 2976 1240 
z
" transform="scale(0.015625)"/>
      </defs>
      <use xlink:href="#CMR17-6c" transform="translate(43.836741 0)scale(0.996264)"/>
      <use xlink:href="#CMR17-69" transform="translate(68.7078 0)scale(0.996264)"/>
      <use xlink:href="#CMR17-6d" transform="translate(93.578858 0)scale(0.996264)"/>
      <use xlink:href="#CMMI12-74" transform="translate(0 -59.775871)scale(0.697382)"/>
      <use xlink:href="#CMSY10-21" transform="translate(24.65831 -59.775871)scale(0.697382)"/>
      <use xlink:href="#CMR17-2b" transform="translate(94.396684 -59.775871)scale(0.697382)"/>
      <use xlink:href="#CMSY10-31" transform="translate(144.596815 -59.775871)scale(0.697382)"/>
      <use xlink:href="#CMSY10-68" transform="translate(214.33519 0)scale(0.996264)"/>
      <use xlink:href="#CMR17-1" transform="translate(253.078923 0)scale(0.996264)"/>
      <use xlink:href="#CMMI12-78" transform="translate(329.998513 0)scale(0.996264)"/>
      <use xlink:href="#CMR17-34" transform="translate(385.432573 36.153639)scale(0.697382)"/>
      <use xlink:href="#CMSY10-6b" transform="translate(385.432573 -32.089792)scale(0.697382)"/>
      <use xlink:href="#CMSY10-69" transform="translate(420.799915 0)scale(0.996264)"/>
      <use xlink:href="#CMMI12-63" transform="translate(459.543649 -14.943915)scale(0.697382)"/>
     </g>
    </g>
    <g id="LineCollection_2">
     <path d="M 178.2 160.243494 
L 178.2 142.243494 
" style="fill: none; stroke: #1a1a1a; stroke-width: 3"/>
    </g>
    <g id="line2d_46">
     <g>
      <use xlink:href="#m8ae6988402" x="178.2" y="160.243494" style="fill: #1a1a1a; stroke: #1a1a1a; stroke-width: 0.8"/>
     </g>
    </g>
    <g id="line2d_47">
     <g>
      <use xlink:href="#m8ae6988402" x="178.2" y="142.243494" style="fill: #1a1a1a; stroke: #1a1a1a; stroke-width: 0.8"/>
     </g>
    </g>
    <g id="line2d_48"/>
    <g id="line2d_49">
     <g>
      <use xlink:href="#m85f2d7bf77" x="178.2" y="151.243494" style="fill: #443a31; stroke: #1a1a1a; stroke-width: 0.8"/>
     </g>
    </g>
    <g id="text_13">
     <!-- Experimental on $x$ -->
     <g style="fill: #262626" transform="translate(210.6 157.543494)scale(0.18 -0.18)">
      <defs>
       <path id="CMR17-45" d="M 3885 1615 
L 3770 1615 
C 3629 676 3546 166 2419 166 
L 1530 166 
C 1274 166 1261 197 1261 414 
L 1261 2176 
L 1862 2176 
C 2464 2176 2522 1960 2522 1430 
L 2637 1430 
L 2637 3081 
L 2522 3081 
C 2522 2557 2464 2342 1862 2342 
L 1261 2342 
L 1261 3913 
C 1261 4128 1274 4160 1530 4160 
L 2406 4160 
C 3398 4160 3514 3769 3603 2929 
L 3718 2929 
L 3565 4325 
L 326 4325 
L 326 4160 
C 768 4160 838 4160 838 3874 
L 838 451 
C 838 166 768 166 326 166 
L 326 0 
L 3654 0 
L 3885 1615 
z
" transform="scale(0.015625)"/>
       <path id="CMR17-78" d="M 1664 1477 
C 1856 1726 2074 2006 2253 2216 
C 2464 2458 2707 2560 2989 2560 
L 2989 2726 
C 2880 2726 2656 2726 2541 2726 
C 2368 2726 2170 2726 2022 2732 
L 2022 2566 
C 2112 2553 2163 2489 2163 2400 
C 2163 2285 2099 2215 2067 2171 
L 1594 1573 
L 1030 2306 
C 973 2376 973 2388 973 2420 
C 973 2497 1037 2560 1146 2560 
L 1146 2732 
C 992 2726 717 2726 557 2726 
C 384 2726 179 2726 38 2732 
L 38 2560 
C 384 2560 461 2534 614 2343 
L 1350 1395 
C 1363 1382 1395 1344 1395 1325 
C 1395 1299 838 619 768 530 
C 480 185 179 160 6 160 
L 6 0 
C 115 0 339 0 454 0 
C 582 0 864 0 979 -6 
L 979 160 
C 941 166 838 179 838 325 
C 838 440 890 510 947 586 
L 1478 1236 
L 2035 512 
C 2086 442 2163 346 2163 301 
C 2163 211 2086 160 1984 160 
L 1984 -6 
C 2138 0 2413 0 2573 0 
C 2746 0 2950 0 3091 -6 
L 3091 160 
C 2771 160 2675 172 2522 370 
L 1664 1477 
z
" transform="scale(0.015625)"/>
       <path id="CMR17-70" d="M 1408 -1063 
C 998 -1063 973 -1037 973 -789 
L 973 402 
C 1158 134 1427 -38 1766 -38 
C 2406 -38 3053 523 3053 1388 
C 3053 2191 2496 2802 1837 2802 
C 1453 2802 1139 2592 960 2338 
L 960 2802 
L 198 2732 
L 198 2567 
C 576 2567 634 2528 634 2223 
L 634 -789 
C 634 -1031 608 -1063 198 -1063 
L 198 -1228 
C 352 -1216 634 -1216 800 -1216 
C 966 -1216 1254 -1216 1408 -1228 
L 1408 -1063 
z
M 973 2012 
C 973 2102 973 2235 1222 2471 
C 1254 2497 1472 2688 1792 2688 
C 2259 2688 2643 2108 2643 1382 
C 2643 656 2234 64 1728 64 
C 1498 64 1248 172 1056 472 
C 973 612 973 650 973 752 
L 973 2012 
z
" transform="scale(0.015625)"/>
       <path id="CMR17-65" d="M 2438 1472 
C 2464 1498 2464 1511 2464 1576 
C 2464 2238 2118 2816 1389 2816 
C 710 2816 173 2169 173 1383 
C 173 551 781 -64 1459 -64 
C 2176 -64 2458 607 2458 740 
C 2458 784 2419 784 2406 784 
C 2362 784 2355 771 2330 696 
C 2189 265 1837 51 1504 51 
C 1229 51 954 203 781 480 
C 582 803 582 1176 582 1472 
L 2438 1472 
z
M 589 1568 
C 634 2505 1126 2714 1382 2714 
C 1818 2714 2112 2297 2118 1568 
L 589 1568 
z
" transform="scale(0.015625)"/>
       <path id="CMR17-72" d="M 960 1497 
C 960 2112 1222 2688 1702 2688 
C 1747 2688 1792 2682 1837 2662 
C 1837 2662 1696 2617 1696 2452 
C 1696 2298 1818 2234 1914 2234 
C 1990 2234 2131 2279 2131 2458 
C 2131 2663 1926 2790 1709 2790 
C 1222 2790 1011 2317 947 2093 
L 941 2093 
L 941 2790 
L 198 2720 
L 198 2554 
C 576 2554 634 2515 634 2208 
L 634 428 
C 634 184 608 153 198 153 
L 198 -13 
C 352 0 646 0 813 0 
C 998 0 1325 0 1498 -13 
L 1498 153 
C 1037 153 960 153 960 440 
L 960 1497 
z
" transform="scale(0.015625)"/>
       <path id="CMR17-6e" d="M 2656 1933 
C 2656 2259 2592 2790 1837 2790 
C 1331 2790 1069 2400 973 2144 
L 966 2144 
L 966 2790 
L 211 2720 
L 211 2554 
C 589 2554 646 2515 646 2208 
L 646 428 
C 646 184 621 153 211 153 
L 211 -13 
C 365 0 646 0 813 0 
C 979 0 1267 0 1421 -13 
L 1421 153 
C 1011 153 986 178 986 428 
L 986 1658 
C 986 2247 1344 2688 1792 2688 
C 2266 2688 2317 2266 2317 1958 
L 2317 428 
C 2317 184 2291 153 1882 153 
L 1882 -13 
C 2035 0 2317 0 2483 0 
C 2650 0 2938 0 3091 -13 
L 3091 153 
C 2682 153 2656 178 2656 428 
L 2656 1933 
z
" transform="scale(0.015625)"/>
       <path id="CMR17-74" d="M 966 2560 
L 1862 2560 
L 1862 2725 
L 966 2725 
L 966 3904 
L 851 3904 
C 838 3245 614 2668 70 2668 
L 70 2560 
L 627 2560 
L 627 771 
C 627 650 627 -64 1370 -64 
C 1747 -64 1965 306 1965 777 
L 1965 1140 
L 1850 1140 
L 1850 783 
C 1850 344 1677 51 1408 51 
C 1222 51 966 178 966 758 
L 966 2560 
z
" transform="scale(0.015625)"/>
       <path id="CMR17-61" d="M 2304 1653 
C 2304 2072 2304 2294 2035 2543 
C 1798 2752 1523 2816 1306 2816 
C 800 2816 435 2407 435 1971 
C 435 1728 627 1728 666 1728 
C 749 1728 896 1778 896 1954 
C 896 2112 774 2181 666 2181 
C 640 2181 608 2174 589 2168 
C 723 2592 1069 2714 1293 2714 
C 1613 2714 1965 2429 1965 1885 
L 1965 1600 
C 1587 1600 1133 1549 774 1357 
C 371 1133 256 813 256 570 
C 256 77 832 -64 1171 -64 
C 1523 -64 1850 139 1990 511 
C 2003 233 2182 -18 2464 -18 
C 2598 -18 2938 70 2938 567 
L 2938 920 
L 2822 920 
L 2822 562 
C 2822 178 2650 128 2566 128 
C 2304 128 2304 458 2304 738 
L 2304 1653 
z
M 1965 870 
C 1965 317 1568 38 1216 38 
C 896 38 646 275 646 570 
C 646 761 730 1100 1101 1305 
C 1408 1478 1760 1504 1965 1504 
L 1965 870 
z
" transform="scale(0.015625)"/>
       <path id="CMR17-6f" d="M 2758 1356 
C 2758 2176 2163 2816 1466 2816 
C 768 2816 173 2176 173 1356 
C 173 551 768 -64 1466 -64 
C 2163 -64 2758 551 2758 1356 
z
M 1466 51 
C 1165 51 909 230 762 480 
C 602 767 582 1126 582 1408 
C 582 1677 595 2010 762 2298 
C 890 2509 1139 2714 1466 2714 
C 1754 2714 1997 2554 2150 2330 
C 2349 2029 2349 1607 2349 1408 
C 2349 1158 2336 775 2163 467 
C 1984 173 1709 51 1466 51 
z
" transform="scale(0.015625)"/>
      </defs>
      <use xlink:href="#CMR17-45" transform="scale(0.996264)"/>
      <use xlink:href="#CMR17-78" transform="translate(62.586301 0)scale(0.996264)"/>
      <use xlink:href="#CMR17-70" transform="translate(110.879216 0)scale(0.996264)"/>
      <use xlink:href="#CMR17-65" transform="translate(164.377025 0)scale(0.996264)"/>
      <use xlink:href="#CMR17-72" transform="translate(204.862685 0)scale(0.996264)"/>
      <use xlink:href="#CMR17-69" transform="translate(240.143453 0)scale(0.996264)"/>
      <use xlink:href="#CMR17-6d" transform="translate(265.014512 0)scale(0.996264)"/>
      <use xlink:href="#CMR17-65" transform="translate(341.934101 0)scale(0.996264)"/>
      <use xlink:href="#CMR17-6e" transform="translate(382.419762 0)scale(0.996264)"/>
      <use xlink:href="#CMR17-74" transform="translate(430.712678 0)scale(0.996264)"/>
      <use xlink:href="#CMR17-61" transform="translate(465.993446 0)scale(0.996264)"/>
      <use xlink:href="#CMR17-6c" transform="translate(511.683923 0)scale(0.996264)"/>
      <use xlink:href="#CMR17-6f" transform="translate(566.630948 0)scale(0.996264)"/>
      <use xlink:href="#CMR17-6e" transform="translate(612.321425 0)scale(0.996264)"/>
      <use xlink:href="#CMMI12-78" transform="translate(693.292761 0)scale(0.996264)"/>
     </g>
    </g>
   </g>
  </g>
 </g>
 <defs>
  <clipPath id="peadba29634">
   <rect x="144" y="58.752" width="892.8" height="369.648"/>
  </clipPath>
 </defs>
</svg>
