<?xml version="1.0" encoding="UTF-8" standalone="no"?>
<!-- Created with Inkscape (http://www.inkscape.org/) -->

<svg
   xmlns:dc="http://purl.org/dc/elements/1.1/"
   xmlns:cc="http://creativecommons.org/ns#"
   xmlns:rdf="http://www.w3.org/1999/02/22-rdf-syntax-ns#"
   xmlns:svg="http://www.w3.org/2000/svg"
   xmlns="http://www.w3.org/2000/svg"
   xmlns:sodipodi="http://sodipodi.sourceforge.net/DTD/sodipodi-0.dtd"
   xmlns:inkscape="http://www.inkscape.org/namespaces/inkscape"
   width="210mm"
   height="297mm"
   viewBox="0 0 210 297"
   version="1.1"
   id="svg8"
   inkscape:version="0.92.5 (2060ec1f9f, 2020-04-08)"
   sodipodi:docname="SchemaBulk.svg">
  <defs
     id="defs2" />
  <sodipodi:namedview
     id="base"
     pagecolor="#ffffff"
     bordercolor="#666666"
     borderopacity="1.0"
     inkscape:pageopacity="0.0"
     inkscape:pageshadow="2"
     inkscape:zoom="3.959798"
     inkscape:cx="391.26274"
     inkscape:cy="568.52085"
     inkscape:document-units="mm"
     inkscape:current-layer="layer1"
     showgrid="false"
     inkscape:snap-grids="true"
     showguides="true"
     inkscape:guide-bbox="true"
     inkscape:window-width="1399"
     inkscape:window-height="873"
     inkscape:window-x="263"
     inkscape:window-y="68"
     inkscape:window-maximized="0">
    <sodipodi:guide
       position="122.56329,148.01392"
       orientation="0,1"
       id="guide4585"
       inkscape:locked="false" />
    <sodipodi:guide
       position="122.56329,148.01392"
       orientation="1,0"
       id="guide4587"
       inkscape:locked="false" />
    <sodipodi:guide
       position="87.265251,148.01392"
       orientation="1,0"
       id="guide4589"
       inkscape:locked="false" />
    <sodipodi:guide
       position="104.88839,165.55358"
       orientation="0,1"
       id="guide4595"
       inkscape:locked="false" />
    <sodipodi:guide
       position="104.93564,130.07106"
       orientation="0,1"
       id="guide4597"
       inkscape:locked="false" />
    <sodipodi:guide
       position="104.88839,155.25372"
       orientation="1,0"
       id="guide4599"
       inkscape:locked="false" />
  </sodipodi:namedview>
  <metadata
     id="metadata5">
    <rdf:RDF>
      <cc:Work
         rdf:about="">
        <dc:format>image/svg+xml</dc:format>
        <dc:type
           rdf:resource="http://purl.org/dc/dcmitype/StillImage" />
        <dc:title></dc:title>
      </cc:Work>
    </rdf:RDF>
  </metadata>
  <g
     inkscape:label="Calque 1"
     inkscape:groupmode="layer"
     id="layer1">
    <path
       style="opacity:1;fill:#ffffff;fill-opacity:1;stroke:#000000;stroke-width:0.11925189;stroke-miterlimit:4;stroke-dasharray:none"
       id="path3717"
       sodipodi:type="arc"
       sodipodi:cx="103.18749"
       sodipodi:cy="149.24129"
       sodipodi:rx="19.377241"
       sodipodi:ry="20.919142"
       sodipodi:start="0"
       sodipodi:end="6.2709855"
       sodipodi:open="true"
       d="m 122.56473,149.24129 a 19.377241,20.919142 0 0 1 -19.31814,20.91904 19.377241,20.919142 0 0 1 -19.435978,-20.79144 19.377241,20.919142 0 0 1 19.199588,-21.04587 19.377241,20.919142 0 0 1 19.55309,20.66306" />
    <rect
       style="opacity:1;fill:#ffffff;fill-opacity:1;stroke:#000000;stroke-width:0.32014585;stroke-miterlimit:4;stroke-dasharray:none"
       id="rect3721"
       width="199.57143"
       height="212.04465"
       x="6.8035712"
       y="47.535713" />
    <path
       style="opacity:1;fill:#cccccc;fill-opacity:1;stroke:#000000;stroke-width:0.32014585;stroke-miterlimit:4;stroke-dasharray:none"
       id="path3723"
       sodipodi:type="arc"
       sodipodi:cx="104.98871"
       sodipodi:cy="149.2005"
       sodipodi:rx="17.575893"
       sodipodi:ry="17.575893"
       sodipodi:start="0"
       sodipodi:end="6.2709855"
       sodipodi:open="true"
       d="m 122.5646,149.2005 a 17.575893,17.575893 0 0 1 -17.52229,17.57581 17.575893,17.575893 0 0 1 -17.629168,-17.4686 17.575893,17.575893 0 0 1 17.414748,-17.68237 17.575893,17.575893 0 0 1 17.7354,17.36074" />
    <path
       style="opacity:0;fill:#000000;fill-opacity:1;stroke:#000000;stroke-width:0.32014585;stroke-miterlimit:4;stroke-dasharray:none"
       id="path4530"
       d="m 107.20206,150.06021 c 1.86768,-0.0581 3.73664,-0.0651 5.60505,-0.0809 2.3985,-0.0166 4.79705,-0.0223 7.19559,-0.0287 2.01724,0.0627 4.02649,-0.11822 6.03728,-0.24395 1.53306,-0.1123 3.07332,-0.0819 4.60619,-0.18598 0.6184,-0.0551 0.32287,-0.0272 0.88666,-0.083 0,0 -2.21823,1.64077 -2.21823,1.64077 v 0 c -0.54967,0.0395 -0.26123,0.0205 -0.86538,0.0561 -1.51695,0.056 -3.03667,0.0412 -4.55188,0.149 -2.00429,0.12089 -4.0079,0.27301 -6.01773,0.20971 -2.39139,-0.004 -4.78288,-0.007 -7.17419,0.0164 -1.91505,0.024 -3.83512,0.0324 -5.74348,0.20933 0,0 2.24012,-1.65877 2.24012,-1.65877 z"
       inkscape:connector-curvature="0" />
    <path
       style="opacity:0;fill:#000000;fill-opacity:1;stroke:#000000;stroke-width:0.32014585;stroke-miterlimit:4;stroke-dasharray:none"
       id="path4532"
       d="m 106.2866,143.80752 c 0.0665,-0.84899 -0.0665,-1.7019 -0.53186,-2.43165 -0.10908,-0.17105 -0.24921,-0.32018 -0.37382,-0.48027 -0.97835,-0.95246 -2.28877,-1.12078 -3.58733,-1.24169 -0.53274,0.013 -0.77353,-0.0209 -1.28337,0.14406 -0.20164,0.0652 -0.765072,0.36356 -0.580369,0.25964 0.579399,-0.326 1.123839,-0.75481 1.766029,-0.92676 0.26545,-0.0711 -0.39351,0.38622 -0.56097,0.6041 -0.18888,0.24579 -0.33596,0.52105 -0.50394,0.78157 -0.14165,0.33278 -0.30849,0.65593 -0.42496,0.99833 -0.579716,1.70419 -0.868344,3.92703 -0.603306,5.70971 0.07699,0.51782 0.250108,1.01671 0.375163,1.52507 0.231833,0.47823 0.413433,0.98427 0.695503,1.43469 0.97062,1.54992 2.44758,2.71876 4.05884,3.54499 1.57685,0.80857 2.33197,0.9344 4.04247,1.42863 2.94386,-0.34749 3.05948,-0.20054 5.94838,-1.22571 0.94171,-0.33419 1.8482,-0.76159 2.75713,-1.17674 0.0892,-0.0408 0.15335,-0.12242 0.2276,-0.18652 1.9436,-1.67808 1.18199,-0.81411 2.48303,-2.68775 0.12498,-0.42338 0.33622,-0.83039 0.37496,-1.27013 0.18588,-2.11001 -1.8599,-3.66043 -3.4623,-4.56045 -0.65156,-0.36596 -1.34821,-0.64509 -2.02232,-0.96763 -0.80167,-0.2838 -1.59136,-0.60403 -2.40501,-0.85142 -3.29905,-1.00306 -6.83334,-1.59508 -10.28573,-1.24674 -0.71512,0.0721 -1.41747,0.2392 -2.1262,0.3588 -1.340881,0.42606 -2.40113,0.65009 -3.579423,1.45275 -0.212556,0.14479 0.834292,-0.45408 0.741185,-0.21434 -0.203964,0.52518 -0.810109,0.79079 -1.141896,1.24613 -0.93154,1.27843 -1.026811,1.94198 -1.549734,3.45149 -0.129796,0.70516 -0.309448,1.40294 -0.389384,2.11547 -0.293497,2.61618 -0.03588,5.73343 1.315564,8.05505 0.287282,0.49351 0.692737,0.90799 1.039103,1.36199 0.433507,0.34171 0.834189,0.72977 1.300517,1.02511 2.006658,1.27088 4.481538,1.63759 6.811528,1.40516 0.65582,-0.0654 1.29912,-0.22319 1.94867,-0.33479 1.89391,-0.46926 3.7628,-1.09906 5.43211,-2.13185 0.21946,-0.13577 -0.84372,0.51853 -0.71608,0.29425 0.25222,-0.44319 0.78602,-0.65416 1.13337,-1.02749 0.31973,-0.34365 0.57335,-0.74333 0.86002,-1.115 0.20825,-0.40198 0.45729,-0.78533 0.62473,-1.20595 0.51415,-1.29152 0.59839,-2.72714 0.1552,-4.05522 -0.44451,-1.33208 -0.89105,-1.72618 -1.73657,-2.85275 -0.48176,-0.45065 -0.92849,-0.94194 -1.44527,-1.35195 -2.15452,-1.70939 -4.83599,-2.84272 -7.4854,-3.5159 -0.57827,-0.14693 -1.16984,-0.23541 -1.75476,-0.35312 -1.23166,-0.12038 -1.70006,-0.26128 -2.892635,-0.0414 -0.386948,0.0713 -1.316201,0.68786 -1.130022,0.34123 0.238995,-0.44498 0.828709,-0.74051 1.333386,-0.71987 0.346829,0.0142 -0.523504,0.46413 -0.727982,0.74463 -0.223962,0.30722 -0.363443,0.66791 -0.545164,1.00187 -0.128376,0.40647 -0.282395,0.80573 -0.385127,1.21943 -0.458415,1.84603 -0.614262,3.96741 -0.259736,5.84275 0.08609,0.4554 0.244832,0.89402 0.367247,1.34103 0.413239,1.03918 0.967758,1.99233 1.907428,2.64005 0.676915,0.4666 1.084215,0.53348 1.859975,0.78348 0,0 -2.179628,1.47851 -2.179628,1.47851 v 0 c -0.817729,-0.28321 -1.220023,-0.35202 -1.924593,-0.87039 -0.956863,-0.70399 -1.510874,-1.71632 -1.918692,-2.80629 -0.123317,-0.46113 -0.281755,-0.91427 -0.369945,-1.38339 -0.362964,-1.9307 -0.235347,-4.00397 0.177318,-5.91634 0.09127,-0.42295 0.228219,-0.83472 0.342326,-1.25208 0.166629,-0.35333 0.289319,-0.73094 0.499885,-1.05999 0.866405,-1.35387 2.544765,-1.98103 3.894061,-2.63431 0.352358,-0.17061 0.752208,-0.22938 1.140198,-0.2816 1.15221,-0.15506 1.68775,-0.001 2.86126,0.14845 0.57916,0.13087 1.16498,0.23515 1.73749,0.3926 2.66714,0.73351 5.34956,1.89731 7.54047,3.61002 0.53338,0.41696 1.00056,0.91227 1.50085,1.36841 0.88316,1.13894 1.36575,1.56316 1.84875,2.91955 0.48518,1.36253 0.43663,2.85624 -0.0653,4.2026 -0.16247,0.43579 -0.41016,0.83486 -0.61524,1.25229 -0.28788,0.38861 -0.5409,0.80564 -0.86363,1.16582 -1.3591,1.51681 -2.81933,2.16037 -4.70487,3.24962 -1.69849,0.9812 -3.55305,1.61705 -5.45888,2.0546 -0.66071,0.1052 -1.3157,0.25666 -1.98213,0.31559 -2.38029,0.2105 -4.918309,-0.18997 -6.944721,-1.525 -0.476522,-0.31394 -0.882901,-0.72319 -1.32435,-1.08479 -0.347742,-0.47582 -0.755695,-0.91301 -1.043221,-1.42745 -1.328552,-2.37707 -1.595776,-5.54364 -1.336926,-8.20368 0.0699,-0.71835 0.234394,-1.42433 0.351591,-2.13649 0.476391,-1.53384 0.549839,-2.20542 1.45229,-3.51973 1.225426,-1.78468 2.635772,-2.36839 4.654249,-3.55497 0.532064,-0.31278 1.093957,-0.57852 1.670888,-0.79778 0.62072,-0.23589 1.27384,-0.3756 1.91077,-0.5634 0.70457,-0.10386 1.40384,-0.25417 2.1137,-0.31158 3.45446,-0.2794 6.99733,0.36783 10.29943,1.34254 0.83313,0.24592 1.64466,0.55982 2.46698,0.83973 0.69799,0.32067 1.41813,0.59693 2.09395,0.962 1.72706,0.93294 3.88336,2.53897 3.71196,4.78897 -0.036,0.47317 -0.26203,0.91219 -0.39305,1.36828 -0.32623,0.47397 -0.59077,0.99695 -0.97868,1.42193 -1.54104,1.6883 -3.90938,2.88071 -5.82045,3.8627 -1.53994,0.79128 -4.17258,1.67467 -5.84024,2.0065 -1.01149,0.20126 -2.04923,0.23486 -3.07385,0.35229 -1.75937,-0.50831 -2.49547,-0.62692 -4.11856,-1.45626 -1.65879,-0.84757 -3.182683,-2.04149 -4.190443,-3.6308 -0.293958,-0.46359 -0.483807,-0.98551 -0.72571,-1.47827 -0.132887,-0.52166 -0.312386,-1.03363 -0.398666,-1.56499 -0.29151,-1.79531 -0.04054,-4.02701 0.46937,-5.77079 0.102426,-0.35028 0.253021,-0.68462 0.379532,-1.02693 0.170529,-0.29602 0.659903,-1.23632 0.982192,-1.464 1.101455,-0.77813 2.607845,-1.95947 4.133985,-2.04969 0.22612,-0.0134 0.453,0.007 0.67949,0.01 1.4048,0.15788 2.67967,0.36522 3.7171,1.41899 0.13355,0.1738 0.2824,0.33684 0.40066,0.52139 0.48145,0.75133 0.66425,1.6272 0.66782,2.50797 0,0 -2.49525,1.27139 -2.49525,1.27139 z"
       inkscape:connector-curvature="0" />
    <path
       style="opacity:0;fill:#000000;fill-opacity:1;stroke:#000000;stroke-width:0.32014585;stroke-miterlimit:4;stroke-dasharray:none"
       id="path4534"
       d="m 106.85357,150.04413 c 0.0399,-1.15587 0.0439,-2.31271 0.0494,-3.46916 0.003,-1.44067 -0.35357,-2.80962 -0.90962,-4.12639 -0.29438,-0.76928 -0.80566,-1.41296 -1.23716,-2.10322 -0.2876,-0.55726 -0.36524,-0.98901 -0.23509,-1.60284 0.22908,-0.54601 0.66406,-0.94732 1.16965,-1.24212 2.65245,-1.5466 1.84334,-1.17364 3.23741,-1.78302 0.96828,-0.37243 2.0029,-0.46815 3.02966,-0.52289 1.00489,-0.0298 2.01039,-0.0277 3.01563,-0.0286 0.61101,0.0575 1.25345,-0.0894 1.85978,0.0321 0.13544,0.0271 0.2639,0.0817 0.39586,0.12257 0.42559,0.17384 0.90027,0.2944 1.27627,0.573 0.42714,0.31648 0.75871,0.77231 1.06863,1.19484 0.65202,0.89144 0.90583,1.94274 1.09654,3.0096 0.1633,1.14676 0.16649,2.30722 0.17826,3.46304 0.0162,1.1214 -0.279,2.20202 -0.72289,3.22191 -0.45852,0.94562 -1.21136,1.67664 -1.95715,2.39532 -1.50015,1.30075 -3.28751,2.2157 -5.03539,3.1369 -1.00031,0.53256 -2.01375,1.04289 -3.07007,1.45548 -1.11105,0.46414 -2.21411,0.94126 -3.33186,1.3892 -1.03399,0.44637 -2.04984,0.92661 -3.03955,1.4636 -0.9607,0.47925 -4.950722,2.7717 -0.67878,0.3143 -0.87886,0.50069 -1.69595,1.10108 -2.51499,1.69239 -1.060788,0.76192 -1.752999,1.88173 -2.485548,2.93687 -0.746302,1.04507 -1.264245,2.21781 -1.767679,3.39165 -0.262461,0.6703 -0.516749,1.37763 -0.416073,2.10462 0.29682,0.70278 1.010314,1.01845 1.666293,1.31593 0.8426,0.42336 1.767094,0.52176 2.693047,0.58887 1.16896,0.002 2.25248,-0.48435 3.31084,-0.92643 1.22223,-0.51053 1.72766,-0.74244 2.93875,-1.27935 1.15713,-0.55801 2.37271,-1.00179 3.51384,-1.59423 0.25826,-0.13408 1.01019,-0.57787 0.75351,-0.44079 -1.72355,0.92045 -2.25239,1.39669 -1.26377,0.58774 0.10938,-0.13979 0.23693,-0.26711 0.32815,-0.41938 0.48478,-0.80916 0.56978,-2.10963 0.49548,-3.01746 -0.0294,-0.35915 -0.11085,-0.71212 -0.16628,-1.06817 -0.60928,-2.35844 -1.94982,-4.45539 -3.62219,-6.20855 -0.39598,-0.41511 -0.82838,-0.79388 -1.24258,-1.19081 -1.81141,-1.51309 -0.87788,-0.78465 -2.80173,-2.18384 0,0 2.1051,-1.33569 2.1051,-1.33569 v 0 c 1.94175,1.41433 0.99875,0.67872 2.83008,2.20546 0.42138,0.40145 0.86095,0.78464 1.26413,1.20436 1.41218,1.47011 2.65831,3.20926 3.4131,5.11379 0.1501,0.37874 0.24934,0.7757 0.37401,1.16355 0.0672,0.36458 0.1592,0.72544 0.20152,1.09374 0.10385,0.9037 0.0599,2.29145 -0.34681,3.13581 -0.083,0.17228 -0.20551,0.32255 -0.30826,0.48383 -1.26204,1.13949 -0.37077,0.38867 -3.33849,2.11532 -1.32632,0.77166 -2.79181,1.26657 -4.17251,1.92672 -0.84129,0.37074 -2.13326,0.94404 -2.97605,1.29933 -1.1265,0.47487 -2.261397,0.97578 -3.51032,0.92302 -0.957609,-0.0744 -1.902373,-0.21086 -2.767227,-0.65825 -0.740304,-0.35548 -1.487807,-0.73464 -1.822304,-1.53333 -0.02228,-0.11309 -0.05735,-0.22439 -0.06681,-0.33926 -0.05416,-0.65818 0.243708,-1.31962 0.446583,-1.92552 0.525206,-1.18735 1.040672,-2.38598 1.784117,-3.45819 0.737312,-1.04815 1.383183,-2.20004 2.406703,-3.00259 0.820825,-0.59498 1.636704,-1.20452 2.510238,-1.71997 1.77212,-1.02257 3.54003,-2.05176 5.35269,-3.00137 0.9982,-0.53127 2.0236,-1.00908 3.06695,-1.44526 1.11697,-0.43907 2.20808,-0.93611 3.32173,-1.38338 1.04609,-0.43704 2.05948,-0.9474 3.05844,-1.48288 1.10361,-0.59398 0.70839,-0.3885 -1.32822,0.79613 -0.16301,0.0948 0.32776,-0.18678 0.48817,-0.28592 0.43044,-0.26603 0.81316,-0.58655 1.21429,-0.89328 0.73542,-0.7075 1.51573,-1.3934 2.00661,-2.30539 0.47197,-0.97108 0.77511,-2.03184 0.78278,-3.11776 -0.007,-1.14122 -0.0126,-2.28679 -0.16489,-3.41993 -0.1706,-1.02563 -0.41516,-2.03989 -1.03382,-2.89847 -0.29528,-0.39371 -0.60567,-0.80337 -1.01948,-1.08462 -0.37308,-0.25357 -0.82654,-0.37268 -1.24841,-0.51148 -0.72691,-0.15079 -1.47094,-0.0786 -2.20972,-0.10216 -0.99837,-0.007 -1.9976,-0.0168 -2.99504,0.0355 -1.01234,0.0706 -2.02997,0.18702 -2.96823,0.6024 -1.13782,0.54166 -0.53191,0.26937 1.46607,-0.91285 0.1361,-0.0805 -0.2791,0.14961 -0.41131,0.23635 -0.32579,0.21377 -0.59,0.47811 -0.81093,0.79804 -0.0445,0.15022 -0.11399,0.34135 -0.11607,0.50358 -0.004,0.31174 0.13199,0.62475 0.25115,0.90384 0.41768,0.71495 0.91879,1.38387 1.20397,2.17102 0.54197,1.35765 0.92584,2.75843 0.93377,4.23292 0.005,1.13966 0.009,2.27977 0.0494,3.41884 0,0 -2.49524,1.27139 -2.49524,1.27139 z"
       inkscape:connector-curvature="0" />
    <path
       style="opacity:0;fill:#000000;fill-opacity:1;stroke:#000000;stroke-width:0.32014585;stroke-miterlimit:4;stroke-dasharray:none"
       id="path4561"
       d="m 109.97961,148.54677 c 0.3104,0.84252 0.76027,1.61935 1.2064,2.3951 1.04052,1.72662 2.2791,3.32307 3.50766,4.91775 1.36448,1.72194 2.79933,3.3927 4.37733,4.92379 0.33109,0.32124 0.67355,0.63054 1.01033,0.94581 1.80437,1.61832 3.68222,3.15368 5.5913,4.64636 0.72768,0.57929 1.46468,1.14641 2.21026,1.70242 0.22836,0.17029 0.98719,0.7364 1.23406,0.90057 0.19836,0.13192 0.40618,0.24903 0.60928,0.37354 0.54904,0.34551 1.1515,0.57938 1.75381,0.81056 0,0 -1.08013,0.72452 -1.08013,0.72452 v 0 c -0.60124,-0.24234 -1.20445,-0.48451 -1.75038,-0.84079 -0.20334,-0.12797 -0.41141,-0.24873 -0.61003,-0.38392 -0.30305,-0.20629 -0.93403,-0.69444 -1.21847,-0.91411 -0.73301,-0.56612 -1.45731,-1.14323 -2.17752,-1.72552 -1.89073,-1.51067 -3.74929,-3.06383 -5.54441,-4.68732 -0.90061,-0.84487 -1.13547,-1.0446 -1.99465,-1.93311 -1.21053,-1.25187 -2.34354,-2.57628 -3.43456,-3.93277 -1.249,-1.5891 -2.50725,-3.17814 -3.59471,-4.88447 -0.46728,-0.75883 -0.92288,-1.52375 -1.30514,-2.32964 0,0 1.20957,-0.70877 1.20957,-0.70877 z"
       inkscape:connector-curvature="0" />
    <path
       style="opacity:0;fill:#000000;fill-opacity:1;stroke:#000000;stroke-width:0.32014585;stroke-miterlimit:4;stroke-dasharray:none"
       id="path4563"
       d="m 120.17469,148.41855 c -1.37388,-0.39395 -2.82167,-0.44669 -4.23987,-0.53129 -2.7151,-0.14278 -5.44107,-0.12319 -8.15064,0.11554 -0.65373,0.0576 -1.30496,0.14079 -1.95744,0.21118 -4.09323,0.54672 -8.085991,1.62728 -12.070052,2.68286 -1.249797,0.31147 -2.478532,0.69967 -3.722764,1.03123 -0.8943,0.23831 -1.792748,0.46078 -2.689471,0.68981 -2.136201,0.54561 -3.8691,0.99126 -6.010696,1.50381 -0.898231,0.21498 -1.799347,0.41773 -2.699022,0.62659 -2.017938,0.43903 -4.038918,0.87792 -6.095738,1.09197 -0.918549,0.0956 -1.758757,0.14738 -2.677907,0.099 -0.350096,-0.0184 -0.697237,-0.074 -1.045858,-0.11106 -1.132956,-0.20084 -2.205728,-0.63805 -3.176037,-1.2542 -0.235701,-0.14967 -0.457613,-0.32003 -0.686419,-0.48004 0,0 1.061683,-0.67711 1.061683,-0.67711 v 0 c 0.227735,0.15631 0.449053,0.32242 0.683207,0.46894 0.954646,0.59737 2.005166,1.02832 3.113241,1.23595 0.337227,0.0403 0.672796,0.0985 1.011682,0.12101 0.878784,0.0583 1.715519,0.0212 2.594023,-0.0565 1.999906,-0.17675 3.967969,-0.57557 5.931455,-0.98106 2.566173,-0.57261 2.979923,-0.64691 5.613463,-1.31328 1.027637,-0.26002 2.053389,-0.52773 3.076173,-0.80624 2.181479,-0.59402 4.344829,-1.25555 6.535873,-1.81519 3.991766,-1.05002 7.990314,-2.13102 12.089584,-2.67819 0.65737,-0.0723 1.31351,-0.15686 1.97211,-0.21695 2.74812,-0.25072 5.51191,-0.28888 8.26819,-0.1843 1.48134,0.0639 2.98708,0.10182 4.43416,0.45472 0,0 -1.16293,0.77277 -1.16293,0.77277 z"
       inkscape:connector-curvature="0" />
    <path
       style="opacity:0;fill:#000000;fill-opacity:1;stroke:#000000;stroke-width:0.32014585;stroke-miterlimit:4;stroke-dasharray:none"
       id="path4565"
       d="m 73.464543,140.1898 c 0.788451,0.35465 1.626775,0.56863 2.451016,0.82 1.311021,0.38276 2.601301,0.82983 3.903654,1.23959 1.727028,0.51839 3.421838,1.13718 5.139701,1.68362 0.429527,0.13663 0.862123,0.26341 1.293183,0.39512 2.043982,0.63952 4.104142,1.22518 6.158401,1.83034 0.871895,0.25686 1.739234,0.52959 2.615206,0.77216 1.072131,0.2969 2.152282,0.56403 3.228422,0.84604 4.771414,1.15333 9.588284,2.16672 14.470684,2.71753 0.66159,0.0746 1.32561,0.12593 1.98842,0.18889 1.99043,0.16846 4.00144,0.12714 5.95666,-0.31178 0.40481,-0.0909 0.801,-0.2166 1.20149,-0.32491 0,0 -0.93793,0.71918 -0.93793,0.71918 v 0 c -0.39889,0.10293 -0.79367,0.22335 -1.19667,0.30878 -1.93309,0.40979 -3.91423,0.42335 -5.87319,0.21245 -0.647,-0.0755 -1.29541,-0.13978 -1.94101,-0.22648 -4.82356,-0.64784 -9.57249,-1.73958 -14.307807,-2.84257 -1.106665,-0.26149 -2.213364,-0.52283 -3.319991,-0.78448 -0.928238,-0.21947 -1.86055,-0.42238 -2.7846,-0.65886 -0.556405,-0.14239 -1.103389,-0.31935 -1.65554,-0.47743 -1.52083,-0.43541 -3.044915,-0.85972 -4.559983,-1.31506 -0.436631,-0.12895 -0.874553,-0.25361 -1.309893,-0.38685 -1.738355,-0.53207 -3.454422,-1.13629 -5.202047,-1.6388 -1.319649,-0.39493 -2.629009,-0.82349 -3.952822,-1.20508 -0.846133,-0.24991 -1.698707,-0.48002 -2.52494,-0.79226 0,0 1.159586,-0.76914 1.159586,-0.76914 z"
       inkscape:connector-curvature="0" />
    <path
       style="opacity:0;fill:#000000;fill-opacity:1;stroke:#000000;stroke-width:0.32014585;stroke-miterlimit:4;stroke-dasharray:none"
       id="path4567"
       d="m 117.73349,139.84927 c -0.62743,0.38541 -1.20942,0.83956 -1.79982,1.27797 -0.49904,0.37056 -1.13947,0.83682 -1.63546,1.19918 -1.90006,1.34225 -3.85411,2.6165 -5.88369,3.75563 -0.8104,0.45485 -1.62987,0.89332 -2.4448,1.33998 -3.39383,1.79181 -7.034636,3.02835 -10.67248,4.21531 -3.506986,1.11426 -7.123835,1.8071 -10.748065,2.40656 -1.982095,0.26667 -3.982808,0.59892 -5.990879,0.51887 -0.28317,-0.0113 -0.565028,-0.0446 -0.847542,-0.0669 0,0 1.023993,-0.73104 1.023993,-0.73104 v 0 c 0.274677,0.0242 0.548603,0.0594 0.824029,0.0725 1.970582,0.0934 3.937103,-0.2157 5.884442,-0.46518 3.600145,-0.57547 7.192925,-1.25041 10.670521,-2.36831 3.653674,-1.19775 7.306461,-2.45433 10.709651,-4.26811 0.96507,-0.44442 0.53888,-0.22647 1.91232,-1.05042 1.516,-0.90948 2.99628,-1.88094 4.43304,-2.91091 1.0889,-0.80458 2.15847,-1.63616 3.26214,-2.41977 0,0 1.3026,-0.50526 1.3026,-0.50526 z"
       inkscape:connector-curvature="0" />
    <path
       style="opacity:0;fill:#000000;fill-opacity:1;stroke:#000000;stroke-width:0.32014585;stroke-miterlimit:4;stroke-dasharray:none"
       id="path4569"
       d="m 83.365487,142.25556 c 1.301348,0.59124 2.605347,1.17545 3.8965,1.78901 1.687968,0.83179 3.419483,1.56778 5.138537,2.33114 0.953957,0.42361 1.901973,0.8605 2.853986,1.28847 1.483804,0.68695 2.969334,1.37596 4.423955,2.12362 1.459965,0.7504 2.883585,1.57338 4.314555,2.37687 3.28326,2.0368 6.66133,3.93895 10.18115,5.53921 0.62162,0.28262 1.25386,0.54126 1.88079,0.81189 2.44408,0.95756 4.96608,1.83821 7.59141,2.12672 0.41011,0.0451 0.82349,0.0525 1.23523,0.0787 0.38475,-0.0204 0.77143,-0.0178 1.15426,-0.0613 0.70612,-0.0802 1.41027,-0.25196 2.07757,-0.49532 0.3177,-0.11586 0.62102,-0.26792 0.93168,-0.40151 0.07,-0.0301 -0.13972,0.0607 -0.20958,0.091 0,0 1.14746,-0.44304 1.14746,-0.44304 v 0 c -0.63311,0.37036 -1.25084,0.76839 -1.89934,1.11109 -0.29844,0.15771 -0.61689,0.27631 -0.93574,0.38709 -1.04111,0.36173 -2.12742,0.52197 -3.22851,0.50062 -0.40847,-0.0327 -0.8188,-0.0473 -1.22539,-0.0983 -2.60022,-0.32592 -5.08913,-1.22987 -7.49659,-2.22553 -1.81246,-0.81344 -2.0219,-0.88299 -3.83863,-1.80237 -2.80913,-1.4216 -5.53401,-2.99873 -8.29116,-4.51644 -1.42905,-0.80138 -2.85149,-1.62458 -4.309344,-2.37311 -1.456142,-0.74765 -2.947987,-1.4276 -4.434353,-2.11195 -0.954561,-0.42577 -1.904992,-0.86084 -2.861826,-1.28149 -1.73514,-0.7628 -3.485922,-1.49034 -5.204512,-2.29076 -1.335411,-0.59864 -2.676912,-1.18691 -4.055044,-1.6816 0,0 1.162936,-0.77276 1.162936,-0.77276 z"
       inkscape:connector-curvature="0" />
    <path
       style="opacity:0;fill:#000000;fill-opacity:1;stroke:#000000;stroke-width:0.32014585;stroke-miterlimit:4;stroke-dasharray:none"
       id="path4571"
       d="m 123.17643,145.82587 c -0.10075,0.0646 -0.20328,0.12658 -0.30226,0.1939 -0.63348,0.43082 -1.25256,0.88235 -1.89165,1.30529 -0.31781,0.21032 -0.64031,0.41347 -0.96047,0.62021 -0.3714,0.2475 -0.7428,0.49499 -1.1142,0.74248 -2.54524,1.67326 -5.18088,3.2288 -7.94204,4.52094 -0.52755,0.24688 -1.06436,0.47348 -1.59654,0.71022 -2.88731,1.27549 -5.85931,2.34213 -8.83457,3.39048 -1.82284,0.58274 -3.687517,1.04341 -5.578555,1.34167 -1.154872,0.18215 -1.592038,0.21128 -2.746973,0.32949 -1.568546,0.0978 -3.163803,0.17458 -4.718894,-0.11446 -0.777539,-0.14451 -1.029012,-0.25772 -1.762432,-0.50624 -0.975244,-0.39844 -1.676096,-0.86595 -2.287561,-1.73617 -0.303909,-0.43251 -0.426479,-0.74154 -0.653436,-1.21729 -0.620075,-1.42816 -0.737926,-2.979 -0.816317,-4.51354 -0.04162,-1.11133 -0.0026,-2.22795 0.173432,-3.32738 0.107945,-0.67419 0.176834,-0.89874 0.338254,-1.55989 0.21095,-0.81981 0.499716,-1.56896 0.970709,-2.27739 0.167105,-0.25135 0.331639,-0.51002 0.546637,-0.72186 0.653169,-0.64359 1.308907,-0.9661 2.091367,-1.43235 0.741288,-0.37704 1.464326,-0.79235 2.223865,-1.13113 0.412655,-0.18406 0.849482,-0.31076 1.284296,-0.43364 0.86955,-0.24575 1.717225,-0.39723 2.619742,-0.44873 1.144405,-0.0653 1.451433,0.0172 2.58168,0.14403 1.764684,0.28862 3.441216,0.92157 4.987642,1.81419 1.085484,0.62657 1.395834,0.90094 2.409574,1.65 2.52091,2.06362 4.66079,4.52993 6.83526,6.94173 1.84128,2.03285 3.74215,4.01215 5.72414,5.90822 1.321,1.18907 2.61363,2.41104 4.01111,3.51066 0.82957,0.58303 1.72455,1.06964 2.70061,1.35722 0.65665,0.19346 0.92348,0.21375 1.60775,0.32474 0.94228,0.12511 1.89653,0.17177 2.8415,0.0382 0.67861,-0.0959 1.57534,-0.32656 2.21686,-0.54154 0.41092,-0.1377 0.80981,-0.309 1.21472,-0.46351 1.1779,-0.54979 1.39662,-0.62112 2.53739,-1.28092 0.10407,-0.0602 0.19198,-0.14485 0.29031,-0.21402 0.40393,-0.28416 0.81894,-0.55277 1.2164,-0.84592 1.02932,-0.75916 1.15486,-0.91031 2.08779,-1.74611 1.05509,-1.02563 1.94237,-2.2191 2.50313,-3.5862 0.31312,-0.7634 0.3458,-1.03421 0.53747,-1.83241 0.18347,-1.26578 0.11949,-0.63171 0.19276,-1.9021 0,0 1.10414,-0.55486 1.10414,-0.55486 v 0 c -0.0691,1.28345 -0.008,0.64281 -0.18355,1.92186 -0.19449,0.83613 -0.21197,1.05967 -0.53729,1.8603 -0.56587,1.39263 -1.46253,2.60998 -2.537,3.65306 -0.33081,0.29691 -0.65185,0.60507 -0.99241,0.89072 -0.61592,0.51662 -1.65887,1.3043 -2.33224,1.73175 -0.73382,0.46583 -1.4845,0.90488 -2.23757,1.33891 -0.42363,0.24416 -0.8545,0.4762 -1.29171,0.69516 -0.41956,0.21012 -0.85161,0.39432 -1.27742,0.59148 -1.06567,0.40297 -1.32172,0.53939 -2.41057,0.80176 -1.32914,0.32027 -2.61847,0.36032 -3.96903,0.16523 -0.71109,-0.11458 -0.95453,-0.12842 -1.63421,-0.3337 -0.98591,-0.29776 -1.88891,-0.79754 -2.72548,-1.39161 -0.49105,-0.3933 -0.72361,-0.56845 -1.19521,-0.99185 -0.20313,-0.18237 -0.39742,-0.37437 -0.59755,-0.56005 -0.72107,-0.669 -1.4488,-1.33088 -2.16235,-2.00799 -1.95329,-1.91949 -3.81874,-3.92531 -5.64516,-5.96551 -2.16995,-2.40947 -4.31419,-4.8673 -6.85155,-6.90463 -1.01516,-0.73732 -1.329946,-1.01078 -2.415904,-1.62488 -1.546778,-0.87468 -3.221871,-1.49176 -4.979673,-1.76761 -0.422926,-0.0449 -0.843994,-0.11374 -1.268783,-0.1347 -0.875204,-0.0432 -1.729491,0.0116 -2.592236,0.16564 -1.728423,0.30853 -0.887974,0.26383 -2.577126,0.75022 -0.07202,0.0207 -0.149728,-0.007 -0.224592,-0.0109 -0.733756,0.42888 -1.418296,0.76487 -2.035643,1.35982 -0.214921,0.20712 -0.382823,0.45929 -0.550574,0.70618 -0.464738,0.68397 -0.759384,1.44186 -0.969555,2.23742 -0.160013,0.63725 -0.239279,0.89968 -0.348608,1.5496 -0.183665,1.09185 -0.228785,2.20271 -0.187078,3.30781 0.08532,1.51424 0.20267,3.04797 0.816102,4.45672 0.219532,0.45516 0.3503,0.77475 0.641326,1.18918 0.584515,0.83237 1.286417,1.31023 2.217753,1.69653 0.725173,0.24961 0.955186,0.35652 1.724755,0.50364 1.531832,0.29285 3.104843,0.22701 4.65146,0.12795 1.152546,-0.11725 1.578406,-0.14421 2.731135,-0.32861 1.887635,-0.30197 3.748474,-0.76681 5.566451,-1.35551 2.95804,-1.03711 5.91354,-2.09101 8.78178,-3.36062 0.53244,-0.23874 1.06957,-0.4673 1.59733,-0.71621 2.086,-0.98383 4.10192,-2.11031 6.00453,-3.41525 0.35966,-0.24361 0.71932,-0.48721 1.07899,-0.73082 0.30975,-0.20149 0.6222,-0.3989 0.92925,-0.60448 0.6067,-0.40619 1.19347,-0.83799 1.78452,-1.26573 0.0874,-0.0632 0.17805,-0.12186 0.26707,-0.18279 0,0 1.29498,-0.50351 1.29498,-0.50351 z"
       inkscape:connector-curvature="0" />
    <path
       style="opacity:0;fill:#000000;fill-opacity:1;stroke:#000000;stroke-width:0.32014585;stroke-miterlimit:4;stroke-dasharray:none"
       id="path4573"
       d="m 89.258271,126.69508 c -0.09107,0.99294 -0.106529,1.99081 -0.12415,2.98714 -0.01617,0.9239 0.05078,1.8683 0.362601,2.74674 0.213026,0.60013 0.355189,0.77664 0.681251,1.32417 0.177269,0.20216 0.313272,0.44985 0.531802,0.6065 0.714635,0.51229 1.994152,0.95884 2.789706,1.1896 1.157788,0.33583 2.360819,0.55478 3.562358,0.65131 0.579496,0.0466 1.162275,0.0325 1.743411,0.0487 0.555022,-0.0354 1.112454,-0.0437 1.66507,-0.10629 1.41092,-0.1599 2.78829,-0.52172 4.06658,-1.14565 1.22838,-0.59955 1.38709,-0.55074 0.8239,-0.59295 0.21588,-0.21122 0.44991,-0.40535 0.64764,-0.63364 0.65624,-0.7577 1.07557,-1.74559 1.19648,-2.73858 0.0278,-0.22791 0.0202,-0.45874 0.0303,-0.68811 -0.0529,-0.95057 -0.30274,-1.88465 -0.76329,-2.72101 -0.26063,-0.47331 -0.45901,-0.70322 -0.78266,-1.13003 -0.66816,-0.82971 -1.53832,-1.44241 -2.50481,-1.87835 -0.15428,-0.0696 -0.31391,-0.12664 -0.47087,-0.18996 -0.58382,-0.19986 -1.05889,-0.22455 -1.64466,-0.0175 -0.15046,0.0532 -0.56866,0.28353 -0.43954,0.18975 0.20316,-0.14754 0.44341,-0.23571 0.66512,-0.35357 -1.305123,1.01896 -2.234988,2.40391 -3.151298,3.76109 -1.24582,1.82865 -2.241058,3.80587 -3.29238,5.74771 -0.82967,1.47651 -1.629399,2.97364 -2.541093,4.40231 -0.612923,0.96048 -0.871701,1.29508 -1.537557,2.2245 -1.063548,1.40998 -2.243058,2.74566 -3.607022,3.87435 -0.901515,0.74602 -1.131837,0.85133 -2.110827,1.47703 -0.705732,0.38183 -1.396985,0.79172 -2.117191,1.14548 -0.367792,0.18066 -0.754824,0.32077 -1.141857,0.45536 -0.639278,0.22231 -1.649352,0.49103 -2.321301,0.60133 -1.013722,0.16639 -1.187754,0.11725 -2.200066,0.0966 -0.347604,-0.0565 -0.699566,-0.0907 -1.042812,-0.16949 -1.309151,-0.30038 -2.679388,-0.94172 -3.751734,-1.75022 -0.26952,-0.2032 -0.514376,-0.43721 -0.771565,-0.65581 -0.966168,-0.90946 -1.733436,-1.98877 -2.263645,-3.20511 -0.299725,-0.68759 -0.354547,-0.95537 -0.560901,-1.66198 -0.217866,-0.88115 -0.304236,-1.80306 -0.0426,-2.6859 0.132646,-0.44759 0.227653,-0.56425 0.452721,-0.96184 0.391348,-0.56441 0.909595,-1.01968 1.507757,-1.35525 1.611029,-0.90382 1.083609,-0.68741 2.112341,-1.05311 0.751194,-0.19551 1.54038,-0.37947 2.323835,-0.32597 0.144164,0.01 0.286388,0.0388 0.42958,0.0581 1.027277,0.27744 1.96228,0.8059 2.851457,1.37723 0.701818,0.43658 1.366467,0.94841 1.904217,1.5808 0.317301,0.37313 0.473612,0.63029 0.747043,1.03654 0.803225,1.17441 1.406014,2.46636 2.039718,3.73562 0.690218,1.43553 1.546966,2.77806 2.40914,4.11385 0.952558,1.45826 1.966446,2.87607 2.990225,4.28497 1.022525,1.37919 2.174129,2.68753 3.553463,3.72359 0.299995,0.22533 0.621665,0.42027 0.932497,0.6304 1.331791,0.76611 2.79377,1.32076 4.33043,1.48213 1.032359,0.10842 1.420926,0.038 2.461001,-0.0292 0.441304,-0.0643 0.886134,-0.10804 1.323934,-0.19305 0.96416,-0.18722 1.84751,-0.45802 2.77567,-0.77748 1.52119,-0.52356 2.9812,-1.18036 4.44698,-1.83893 1.22726,-0.61399 1.83513,-0.88656 3.01094,-1.60183 0.18673,-0.1136 0.35273,-0.25824 0.52897,-0.38752 1.19682,-0.87793 1.57037,-1.0964 2.64862,-2.10953 0.38204,-0.35897 0.73179,-0.7508 1.09769,-1.1262 0.15466,-0.64725 0.40243,-1.27912 0.46399,-1.94174 0.068,-0.73258 0.0198,-1.47669 -0.0787,-2.20581 -0.26525,-1.96424 -1.06595,-3.87682 -2.32359,-5.41174 -0.33006,-0.40282 -0.73626,-0.7367 -1.10439,-1.10505 -0.38615,-0.25649 -0.74699,-0.55594 -1.15845,-0.76948 -1.05387,-0.54696 -2.29364,-0.73411 -3.45184,-0.44508 -1.02866,0.25671 -0.90455,0.1014 -1.1595,0.52886 -0.35365,0.31716 -0.72803,0.61264 -1.06097,0.95147 -1.59013,1.61827 -2.72281,3.64597 -3.51855,5.75725 -0.20045,0.53184 -0.35397,1.08021 -0.53095,1.62032 -0.1139,0.52671 -0.26506,1.04671 -0.34168,1.58012 -0.2176,1.51487 -0.10092,3.06351 0.52905,4.47494 0.5398,1.2094 0.87954,1.42865 1.75748,2.39693 0.4197,0.31569 0.81517,0.66645 1.25908,0.94708 1.49825,0.94716 3.24087,1.52709 4.98419,1.8055 1.64388,0.26253 2.20106,0.18078 3.85773,0.1535 0.63795,-0.0794 1.28065,-0.12702 1.91385,-0.2381 1.72871,-0.30328 3.45565,-0.85148 4.97759,-1.7411 0.1121,-0.0655 0.16995,-0.19656 0.26084,-0.28928 0.3099,-0.31611 0.62748,-0.62459 0.94122,-0.93689 0.2318,-0.33812 0.50259,-0.6526 0.69541,-1.01437 0.59281,-1.11228 0.71261,-2.33725 0.41864,-3.55688 -0.28656,-1.18889 -0.58685,-1.5416 -1.18912,-2.6117 -0.33102,-0.42212 -0.63452,-0.86734 -0.99305,-1.26636 -1.08192,-1.20411 -2.39352,-2.21809 -3.7874,-3.03346 -1.0098,-0.59069 -1.43709,-0.73812 -2.48542,-1.18844 -1.29851,-0.51843 -2.64579,-0.80627 -4.03125,-0.94516 0,0 1.07435,-0.76095 1.07435,-0.76095 v 0 c 1.3502,0.1927 2.67486,0.51579 3.9319,1.05804 1.03637,0.4729 1.451,0.62829 2.45185,1.2324 1.39134,0.83981 2.70206,1.8647 3.799,3.0685 0.36569,0.40132 0.6795,0.84701 1.01925,1.27051 0.6199,1.06353 0.94195,1.44058 1.24969,2.62866 0.32043,1.2371 0.21836,2.49313 -0.37579,3.63239 -0.19387,0.37172 -0.46961,0.69465 -0.70441,1.04197 -0.3193,0.3221 -0.59539,0.69374 -0.9579,0.96629 -1.59128,1.19637 -3.3979,2.1345 -5.3172,2.67174 -1.55072,0.43406 -2.13546,0.43938 -3.73986,0.62999 -1.65871,0.0193 -2.23446,0.0965 -3.88175,-0.167 -1.76364,-0.28213 -3.53562,-0.86024 -5.05547,-1.8133 -0.45191,-0.28338 -0.85432,-0.63893 -1.28148,-0.95839 -0.89421,-0.98637 -1.23564,-1.20426 -1.7844,-2.43672 -0.6371,-1.43088 -0.75945,-3.00303 -0.53503,-4.53835 0.0789,-0.53946 0.2344,-1.06489 0.3516,-1.59733 0.17905,-0.54441 0.33584,-1.09665 0.53715,-1.63322 0.60817,-1.62097 1.3999,-3.20468 2.43791,-4.59627 0.78496,-1.05233 1.09645,-1.26805 2.03057,-2.13897 1.09043,-0.66082 1.98002,-1.39249 3.21725,-1.671 1.17354,-0.26417 2.41415,-0.0396 3.45891,0.54152 0.40734,0.22657 0.76173,0.5374 1.1426,0.80609 0.36003,0.38107 0.75882,0.72893 1.08008,1.14321 1.22684,1.58205 1.98988,3.52593 2.27905,5.50026 0.10698,0.73042 0.16914,1.47403 0.12664,2.21102 -0.0384,0.66518 -0.24497,1.30987 -0.36746,1.96481 -1.02292,1.0512 -1.21732,1.31374 -2.3807,2.24747 -1.32355,1.06228 -2.21762,1.56691 -3.77507,2.49064 -0.49228,0.29197 -0.99185,0.57196 -1.49779,0.83955 -0.50204,0.26553 -1.01682,0.50621 -1.52524,0.75932 -2.76556,1.24252 -5.58485,2.50077 -8.632934,2.82392 -1.05831,0.064 -1.442628,0.13374 -2.492161,0.0175 -1.551305,-0.17185 -3.02034,-0.74648 -4.364789,-1.52027 -0.314015,-0.21277 -0.638416,-0.41096 -0.942046,-0.6383 -1.390822,-1.04137 -2.560066,-2.34849 -3.600966,-3.73026 -0.707329,-0.96746 -1.399603,-1.94527 -2.090714,-2.92435 -0.164018,-0.23236 -0.334078,-0.46051 -0.493977,-0.69572 -0.14741,-0.21685 -0.285157,-0.4401 -0.427738,-0.66016 -0.863505,-1.34023 -1.724819,-2.68503 -2.421409,-4.12237 -0.63913,-1.2601 -1.248738,-2.54227 -2.052494,-3.70916 -0.289357,-0.42545 -0.407774,-0.62564 -0.742387,-1.01519 -0.534268,-0.62198 -1.187643,-1.12912 -1.886106,-1.55335 -0.887764,-0.55277 -1.820214,-1.07033 -2.847186,-1.30955 -0.139764,-0.0149 -0.278884,-0.0383 -0.419294,-0.0448 -0.771652,-0.0358 -1.546277,0.14173 -2.281933,0.35187 -0.162668,0.0615 -0.584353,0.32926 -0.488005,0.18448 0.141716,-0.21294 0.442989,-0.25924 0.643474,-0.41809 0.135779,-0.10759 -0.304437,0.16645 -0.448085,0.26328 -0.225705,0.15213 -0.575754,0.44668 -0.763362,0.64513 -0.114864,0.12151 -0.213215,0.25762 -0.319823,0.38643 -0.233757,0.37988 -0.336392,0.4996 -0.481494,0.93134 -0.290026,0.86294 -0.230513,1.77586 -0.03026,2.65032 0.192022,0.70119 0.241631,0.97159 0.531495,1.65305 0.513107,1.20629 1.27457,2.26931 2.229075,3.16627 0.254159,0.21489 0.496189,0.44502 0.762479,0.64468 1.075177,0.80615 2.404343,1.42151 3.71715,1.71024 0.33877,0.0745 0.685609,0.10585 1.028414,0.15878 0.35673,0.005 0.713872,0.0317 1.070189,0.0139 1.155282,-0.0576 2.313694,-0.34638 3.399774,-0.7331 1.274797,-0.45391 0.722607,-0.53669 1.233215,-0.44293 0.983608,-0.61747 1.216658,-0.72146 2.121803,-1.46078 1.371187,-1.11998 2.558952,-2.44906 3.627712,-3.85515 0.639173,-0.89095 0.945155,-1.29184 1.533771,-2.21341 0.907648,-1.42108 1.696233,-2.91466 2.51841,-4.38537 1.043125,-1.93991 2.025158,-3.91684 3.26045,-5.74599 0.892948,-1.35249 1.793849,-2.72675 3.049272,-3.77665 0.748,-0.44041 1.57004,-1.09384 2.48853,-1.21876 0.43471,-0.0591 0.84812,0.0387 1.25296,0.19186 1.15219,0.50736 2.1957,1.13747 2.98423,2.14414 0.32396,0.4344 0.5272,0.67604 0.7901,1.15557 0.46826,0.85408 0.72614,1.80537 0.7956,2.774 -0.008,0.23571 0.002,0.47276 -0.0245,0.70713 -0.11465,1.01847 -0.53657,2.04016 -1.20084,2.82354 -0.20122,0.23731 -0.44111,0.4389 -0.66167,0.65836 -0.83365,0.54301 -1.91788,1.31778 -2.88041,1.76975 -1.78329,0.83737 -3.73435,1.13545 -5.69083,1.16109 -0.579488,-0.0218 -1.160785,-0.0148 -1.738461,-0.0655 -1.219523,-0.10708 -2.409997,-0.33214 -3.589525,-0.65787 -0.722493,-0.19952 -2.28528,-0.69889 -2.966302,-1.14943 -0.231095,-0.15288 -0.368057,-0.4143 -0.552082,-0.62144 -0.336034,-0.55687 -0.483074,-0.73849 -0.705575,-1.34952 -0.322617,-0.88596 -0.399423,-1.83919 -0.390105,-2.77399 0.0091,-0.97918 0.02212,-1.95833 0.03059,-2.93751 0,0 1.245711,-0.63472 1.245711,-0.63472 z"
       inkscape:connector-curvature="0" />
    <path
       style="opacity:0;fill:#000000;fill-opacity:1;stroke:#000000;stroke-width:0.32014585;stroke-miterlimit:4;stroke-dasharray:none"
       id="path4575"
       d="m 111.64324,165.13923 c -0.1481,0.28196 -0.41965,0.47627 -0.6873,0.63675 -0.55713,0.33404 -1.11509,0.66787 -1.68934,0.97153 -0.58463,0.30917 -1.152,0.45022 -1.78379,0.64846 -2.95495,0.72012 -5.97899,0.71397 -8.979166,0.28689 -0.874681,-0.12451 -1.740662,-0.30393 -2.610993,-0.4559 -0.961441,-0.22181 -1.927072,-0.4262 -2.884324,-0.66545 -4.482444,-1.12034 -8.902922,-2.5228 -13.251521,-4.07954 -1.137478,-0.40719 -2.265386,-0.84065 -3.398081,-1.26097 -1.100457,-0.43875 -2.207104,-0.86228 -3.301378,-1.31623 -1.04058,-0.43167 -2.074508,-0.87961 -3.102533,-1.34038 -2.53878,-1.13792 -5.042712,-2.36265 -7.38373,-3.87441 -0.586459,-0.37871 -1.14327,-0.80148 -1.714902,-1.20222 -1.084667,-0.88051 -2.233668,-1.78426 -2.97625,-2.99652 -0.23694,-0.3868 -0.496134,-0.93975 -0.395677,-1.42591 0.04088,-0.19781 0.190297,-0.35635 0.285446,-0.53453 0.965414,-0.62716 1.217025,-0.84567 2.66229,-1.24802 0.379791,-0.10573 0.787221,-0.0658 1.181346,-0.0566 0.943648,0.0221 1.941238,0.17947 2.850571,0.42017 0.534255,0.14142 1.051899,0.33943 1.577848,0.50914 2.201873,0.8777 4.239969,2.11895 5.94655,3.77317 1.087427,1.05406 1.27081,1.39828 2.164207,2.59627 0.263673,0.44309 0.550156,0.87338 0.791017,1.32927 0.590338,1.11736 1.071478,2.35485 1.184002,3.62453 0.07623,0.86009 -0.01355,1.01692 -0.180414,1.81926 -0.112247,0.22559 -0.191923,0.47057 -0.336743,0.67676 -0.138988,0.19789 -0.302207,0.3889 -0.504637,0.52119 -1.015333,0.66352 -1.508659,1.07917 -2.594367,1.03475 -0.845174,-0.0346 -1.283565,-0.2484 -2.093166,-0.51599 -0.399854,-0.20119 -0.80972,-0.38361 -1.199565,-0.60357 -1.851239,-1.04452 -3.53059,-2.43537 -4.885936,-4.07401 -0.351385,-0.42482 -0.658331,-0.88453 -0.987497,-1.3268 0,0 0.950114,-0.56322 0.950114,-0.56322 v 0 c 0.325771,0.43981 0.628044,0.89803 0.97731,1.31942 1.351367,1.63042 3.048709,3.00749 4.916302,4.00462 0.395216,0.21101 0.811255,0.38045 1.216882,0.57068 0.827993,0.24313 1.259832,0.44238 2.115765,0.43685 0.276391,-0.002 0.57496,-0.24441 0.820756,-0.118 0.157281,0.0809 -0.516316,0.47248 -0.420177,0.32402 0.129905,-0.20059 0.350604,-0.32485 0.525907,-0.48728 0.122505,-0.21822 0.245009,-0.43643 0.367514,-0.65465 0.197025,-0.78442 0.297569,-0.95055 0.24911,-1.80125 -0.07202,-1.26434 -0.526253,-2.50617 -1.09497,-3.62428 -0.231941,-0.45601 -0.510773,-0.8866 -0.766162,-1.32989 -0.872836,-1.18582 -1.064429,-1.54637 -2.133814,-2.58716 -1.696868,-1.65149 -3.735382,-2.87663 -5.938898,-3.72427 -1.367586,-0.41667 -1.704581,-0.58618 -3.102658,-0.76008 -0.455181,-0.0566 -0.914849,-0.0863 -1.373529,-0.0835 -0.402039,0.002 -0.81259,0.19868 -1.20207,0.099 -0.128072,-0.0328 0.273349,-0.36275 0.141377,-0.37056 -0.238585,-0.0141 -0.420251,0.22776 -0.630378,0.34164 -0.108474,0.15742 -0.268562,0.28974 -0.325421,0.47226 -0.14631,0.46967 0.07114,1.0073 0.284035,1.40176 0.664493,1.23117 1.762763,2.16111 2.797397,3.06312 0.551434,0.4108 1.086393,0.84469 1.6543,1.23239 2.274882,1.55304 4.731869,2.80977 7.228326,3.96171 1.016736,0.46914 2.04088,0.92268 3.07281,1.35739 1.08889,0.4587 2.192505,0.88163 3.288758,1.32245 1.131504,0.42041 2.257549,0.85581 3.394511,1.26122 2.275401,0.81134 4.553122,1.55633 6.86702,2.2498 2.086247,0.62525 4.359457,1.2526 6.483035,1.75149 0.972307,0.22842 1.953207,0.41858 2.929808,0.62788 0.884603,0.13929 1.765199,0.30698 2.653808,0.41787 3.054205,0.38115 6.164715,0.33081 9.149775,-0.46985 0.34371,-0.11687 0.69313,-0.21812 1.03112,-0.35062 0.2731,-0.10706 0.51,-0.32149 0.79977,-0.36712 0.21272,-0.0335 -0.36014,0.23954 -0.55613,0.32876 -0.13185,0.06 0.24564,-0.15416 0.36203,-0.2404 0.0732,-0.0542 0.1402,-0.11653 0.20542,-0.18007 0.0331,-0.0322 0.0591,-0.0709 0.0886,-0.10641 0,0 1.27068,-0.59676 1.27068,-0.59676 z"
       inkscape:connector-curvature="0" />
    <path
       style="opacity:0;fill:#000000;fill-opacity:1;stroke:#000000;stroke-width:0.32014585;stroke-miterlimit:4;stroke-dasharray:none"
       id="path4577"
       d="m 81.788107,149.40608 c 1.446004,0.73334 2.878656,1.50074 4.235207,2.39162 0.284948,0.18714 0.560485,0.38821 0.840729,0.58232 0.687224,0.55502 1.635604,1.12913 2.048381,1.9498 0.03369,0.067 0.05308,0.14023 0.07962,0.21035 0.02477,0.22205 0.03204,0.11673 -0.01257,0.31646 0,0 -1.26461,0.58471 -1.26461,0.58471 v 0 c 0.08983,-0.13337 0.06087,-0.0559 0.07051,-0.23796 -0.01725,-0.0652 -0.02649,-0.13304 -0.05179,-0.19554 -0.322516,-0.7968 -1.279348,-1.4394 -1.902613,-1.97023 -0.27286,-0.19623 -0.539504,-0.40141 -0.818573,-0.58871 -1.364658,-0.91589 -2.832548,-1.68626 -4.36299,-2.28397 0,0 1.13869,-0.75885 1.13869,-0.75885 z"
       inkscape:connector-curvature="0" />
    <path
       style="opacity:0;fill:#000000;fill-opacity:1;stroke:#000000;stroke-width:0.32014585;stroke-miterlimit:4;stroke-dasharray:none"
       id="path4579"
       d="m 53.510261,19.063006 c 4.619408,5.447027 10.009291,10.247527 15.71112,14.531946 7.088039,5.062051 15.097609,8.5929 23.399429,11.114495 3.698193,0.728414 7.62932,2.08678 11.45693,1.4463 1.98104,-0.331489 2.90311,-0.951198 4.6412,-1.825768 -22.216577,12.203165 -11.62683,8.1134 -8.82815,3.563647 1.11962,-1.820135 1.46892,-3.833599 1.84618,-5.894597 0.38341,-4.237175 -2.036894,-7.161429 -5.559152,-9.104894 -4.020235,-1.826284 -7.269702,-1.72062 -11.278801,-0.05302 3.790744,-2.13283 7.549465,-4.323595 11.372228,-6.398487 0.740532,-0.40194 -1.421844,0.904899 -2.119992,1.376627 -2.983352,2.015808 -5.817113,4.237945 -8.801118,6.25602 -7.260432,4.610142 -2.325884,1.532226 -18.020848,10.343711 -1.161698,0.652203 -3.327651,1.812951 -4.587668,2.308262 -1.56041,0.613391 -3.302119,1.019407 -4.919832,1.442664 -4.615781,0.889966 -9.316029,1.099032 -14.003922,1.17203 -4.629761,-0.313568 -9.1826,-1.508696 -13.375759,-3.473947 -0.717883,-0.454237 -1.435769,-0.908474 -2.153653,-1.36271 0,0 13.078569,-8.448027 13.078569,-8.448027 v 0 c 0.679881,0.398891 1.359762,0.797782 2.039643,1.196676 4.127733,1.73478 8.556411,2.807473 13.051631,2.865906 4.595069,-0.110662 9.222627,-0.308107 13.700594,-1.44091 2.140841,-0.645917 2.67155,-0.736034 4.750821,-1.655239 4.837715,-2.138661 14.658993,-8.178141 -6.331516,4.124391 -0.784585,0.459843 1.551389,-0.949375 2.327084,-1.424061 8.729983,-5.689524 16.264565,-12.727223 26.32007,-16.487492 4.483251,-1.292504 7.908851,-1.006112 12.101721,1.146613 4.0275,2.573812 6.47519,5.765462 6.42822,10.745119 -0.28645,2.179344 -0.56292,4.487196 -1.50111,6.511057 -3.00385,6.479889 -13.77699,9.772666 -17.756319,12.354621 -2.069949,0.754607 -2.667765,1.124278 -4.95967,1.293291 C 87.595442,55.577985 83.692803,54.295465 79.932667,53.339065 71.614339,50.526936 63.564343,46.825931 56.396892,41.703474 50.561173,37.305977 45.098144,32.422102 39.965018,27.221166 c 0,0 13.545243,-8.15816 13.545243,-8.15816 z"
       inkscape:connector-curvature="0" />
    <path
       style="fill:none;stroke:#000000;stroke-width:0.26458332px;stroke-linecap:butt;stroke-linejoin:miter;stroke-opacity:1"
       d="m 87.26525,145.52604 v 0.0945"
       id="path4591"
       inkscape:connector-curvature="0" />
    <path
       style="fill:#ff00ff;stroke:#0000ff;stroke-width:0.26458332px;stroke-linecap:butt;stroke-linejoin:miter;stroke-opacity:1"
       d="m 104.88839,148.98608 h 17.6749 v 0"
       id="path4601"
       inkscape:connector-curvature="0" />
    <text
       xml:space="preserve"
       style="font-style:normal;font-weight:normal;font-size:10.58333302px;line-height:1.25;font-family:sans-serif;letter-spacing:0px;word-spacing:0px;fill:#000000;fill-opacity:1;stroke:none;stroke-width:0.26458332"
       x="111.85229"
       y="148.06404"
       id="text4609"><tspan
         sodipodi:role="line"
         id="tspan4607"
         x="111.85229"
         y="148.06404"
         style="font-size:3.88055563px;stroke-width:0.26458332;fill:#0000ff">R</tspan></text>
  </g>
</svg>
